<svg width="225" height="73" viewBox="0 0 225 73" fill="none" xmlns="http://www.w3.org/2000/svg">
<rect y="13" width="85" height="47" fill="#868688"/>
<path d="M34.12 23.6C38.2533 23.6 41.4133 24.7467 43.6 27.04C45.8133 29.3333 46.92 32.5867 46.92 36.8C46.92 41.0133 45.8133 44.2667 43.6 46.56C41.4133 48.8533 38.2533 50 34.12 50H22.92V23.6H34.12ZM33.44 44.8C35.68 44.8 37.3067 44.1333 38.32 42.8C39.36 41.44 39.88 39.44 39.88 36.8C39.88 34.16 39.36 32.1733 38.32 30.84C37.3067 29.48 35.68 28.8 33.44 28.8H29.8V44.8H33.44ZM73.8544 50H66.7744L64.9344 44.04H55.8944L54.0144 50H47.0944L56.3744 23.6H64.6144L73.8544 50ZM57.1744 39.36H63.6544L60.4144 28.68L57.1744 39.36Z" fill="#494949"/>
<path d="M95.4847 23.6V39.84C95.4847 43.1733 94.5247 45.7733 92.6047 47.64C90.6847 49.48 87.9647 50.4 84.4447 50.4C81.858 50.4 79.778 49.9467 78.2047 49.04C76.6314 48.1067 75.5514 46.8267 74.9647 45.2C74.378 43.5467 74.258 41.6667 74.6047 39.56L81.3247 38.36C81.0047 40.7867 81.1114 42.5067 81.6447 43.52C82.2047 44.5067 83.218 45 84.6847 45C86.1247 45 87.138 44.52 87.7247 43.56C88.3114 42.6 88.6047 41.12 88.6047 39.12V23.6H95.4847ZM111.891 23.2C114.558 23.2 116.851 23.7467 118.771 24.84C120.718 25.9067 122.211 27.4533 123.251 29.48C124.291 31.5067 124.811 33.9467 124.811 36.8C124.811 39.6533 124.291 42.0933 123.251 44.12C122.211 46.1467 120.718 47.7067 118.771 48.8C116.851 49.8667 114.558 50.4 111.891 50.4C109.225 50.4 106.918 49.8667 104.971 48.8C103.025 47.7067 101.531 46.1467 100.491 44.12C99.4512 42.0933 98.9312 39.6533 98.9312 36.8C98.9312 33.9467 99.4512 31.5067 100.491 29.48C101.531 27.4533 103.025 25.9067 104.971 24.84C106.918 23.7467 109.225 23.2 111.891 23.2ZM111.891 28.6C110.611 28.6 109.531 28.9067 108.651 29.52C107.771 30.1333 107.105 31.0533 106.651 32.28C106.198 33.48 105.971 34.9867 105.971 36.8C105.971 38.5867 106.198 40.0933 106.651 41.32C107.105 42.5467 107.771 43.4667 108.651 44.08C109.531 44.6933 110.611 45 111.891 45C113.171 45 114.238 44.6933 115.091 44.08C115.971 43.4667 116.638 42.5467 117.091 41.32C117.545 40.0933 117.771 38.5867 117.771 36.8C117.771 34.9867 117.545 33.48 117.091 32.28C116.638 31.0533 115.971 30.1333 115.091 29.52C114.238 28.9067 113.171 28.6 111.891 28.6ZM128.743 50V23.6H141.583C144.837 23.6267 147.237 24.2533 148.783 25.48C150.33 26.68 151.103 28.4267 151.103 30.72C151.103 32.2133 150.663 33.5067 149.783 34.6C148.903 35.6667 147.557 36.3467 145.743 36.64V36.68C147.77 36.9467 149.277 37.6533 150.263 38.8C151.277 39.92 151.783 41.28 151.783 42.88C151.783 45.1467 150.983 46.9067 149.383 48.16C147.783 49.3867 145.383 50 142.183 50H128.743ZM135.383 45.16H141.023C142.277 45.16 143.21 44.9067 143.823 44.4C144.437 43.8933 144.743 43.16 144.743 42.2C144.743 41.2667 144.437 40.56 143.823 40.08C143.21 39.5733 142.277 39.32 141.023 39.32H135.383V45.16ZM135.383 34.4H140.383C142.837 34.4 144.063 33.44 144.063 31.52C144.063 29.6 142.837 28.64 140.383 28.64H135.383V34.4ZM179.131 50H172.051L170.211 44.04H161.171L159.291 50H152.371L161.651 23.6H169.891L179.131 50ZM162.451 39.36H168.931L165.691 28.68L162.451 39.36Z" fill="#878687"/>
</svg>
