<svg width="44" height="73" viewBox="0 0 44 73" fill="none" xmlns="http://www.w3.org/2000/svg">
<rect y="13" width="38" height="47" fill="#868688"/>
<path d="M20.12 23.6C24.2533 23.6 27.4133 24.7467 29.6 27.04C31.8133 29.3333 32.92 32.5867 32.92 36.8C32.92 41.0133 31.8133 44.2667 29.6 46.56C27.4133 48.8533 24.2533 50 20.12 50H8.92V23.6H20.12ZM19.44 44.8C21.68 44.8 23.3067 44.1333 24.32 42.8C25.36 41.44 25.88 39.44 25.88 36.8C25.88 34.16 25.36 32.1733 24.32 30.84C23.3067 29.48 21.68 28.8 19.44 28.8H15.8V44.8H19.44Z" fill="#494949"/>
</svg>
