<svg width="418" height="415" viewBox="0 0 418 415" fill="none" xmlns="http://www.w3.org/2000/svg">
<g clip-path="url(#clip0_159_269)">
<path d="M205.402 331.687C198.128 340.816 189.266 350.063 180.554 354.423C178.042 355.718 175.451 356.544 172.827 356.887C170.375 357.212 167.906 356.896 165.514 355.952C159.226 353.374 153.394 348.86 147.75 343.586C145.907 341.861 144.084 340.056 142.273 338.212C139.315 335.2 136.387 332.082 133.451 329.039C133.011 328.578 132.574 328.126 132.135 327.678H132.132C131.423 326.944 130.713 326.221 130 325.509C129.875 325.381 129.75 325.258 129.622 325.131C128.277 323.787 126.908 322.474 125.516 321.192C125.346 321.039 125.175 320.88 125.005 320.727C122.312 318.265 119.545 316.033 116.713 314.039C114.854 312.748 112.97 311.585 111.068 310.592H111.065C110.338 310.215 109.607 309.859 108.875 309.534C106.678 308.541 104.439 307.818 102.177 307.374C99.0593 306.752 95.9064 306.793 92.7954 307.497C92.585 307.545 92.3771 307.593 92.1666 307.65C83.7473 309.872 76.0633 317.363 67.6066 319.128C67.3322 319.186 67.0604 319.238 66.786 319.278C66.6688 319.295 66.5515 319.317 66.4343 319.33C63.9768 319.677 61.5036 319.577 59.0594 319.032C52.2306 317.548 45.5804 312.942 39.5936 307.137C25.5977 293.564 14.2476 272.702 7.34688 248.543C6.16189 244.402 5.1098 240.162 4.19496 235.84C1.63716 223.853 0.228569 211.283 0.0199062 198.582C-0.627532 154.513 14.5673 110.3 38.4239 90.3694C62.2832 70.4385 93.6693 77.0295 112.911 107.648C124.584 126.222 131.338 151.391 140.122 173.878C148.907 196.36 161.392 217.836 177.495 221.112C185.699 222.781 194.283 219.553 202.146 223.751C206.499 226.078 210.214 230.531 213.206 236.204C215.217 240.054 216.901 244.338 218.209 248.938C219.168 252.263 219.947 255.722 220.535 259.274C220.645 259.929 220.746 260.583 220.844 261.237C224.761 287.601 218.502 315.238 205.402 331.687Z" fill="#F2F2F2"/>
<path d="M74.3796 283.961H49.3346C45.5823 283.961 42.5405 288.974 42.5405 295.158V295.158C42.5405 301.342 45.5823 306.355 49.3346 306.355H74.3796C78.1319 306.355 81.1737 301.342 81.1737 295.158C81.1737 288.974 78.1319 283.961 74.3796 283.961Z" fill="#3F3D56"/>
<path d="M66.7862 300.646V319.278C64.2135 319.688 61.6207 319.605 59.0596 319.032V300.646H66.7862Z" fill="#3F3D56"/>
<path d="M92.7957 307.497C92.5852 307.545 92.3774 307.593 92.1669 307.65C83.7475 309.872 76.0635 317.363 67.6068 319.128C67.3324 319.185 67.0607 319.238 66.7862 319.278C66.669 319.295 66.5518 319.317 66.4345 319.33C64.3697 315.998 62.3048 312.45 60.3651 308.774C59.3127 306.785 58.2949 304.757 57.3384 302.702C54.8552 297.397 52.7504 291.944 51.3596 286.586C51.5008 284.018 50.531 278.077 50.0674 273.528L50.0647 273.523C49.8676 271.613 49.761 269.953 49.8596 268.886C50.4244 262.73 53.4751 263.437 54.4129 257.404C55.259 256.247 56.1597 255.203 57.1066 254.282C57.2638 254.128 57.4237 253.974 57.5889 253.821L67.7667 242.228L71.6567 248.516L77.5769 258.089L83.9926 268.456L78.5467 277.523C78.5467 277.523 83.0974 286.169 88.4181 297.696C89.8462 300.791 91.3303 304.098 92.7957 307.497Z" fill="#2F2E41"/>
<path d="M180.554 300.646V354.423C178.042 355.718 175.45 356.544 172.827 356.887V300.646H180.554Z" fill="#3F3D56"/>
<path d="M190.545 296.256H165.5C161.748 296.256 158.706 301.269 158.706 307.453V307.453C158.706 313.637 161.748 318.65 165.5 318.65H190.545C194.297 318.65 197.339 313.637 197.339 307.453C197.339 301.269 194.297 296.256 190.545 296.256Z" fill="#3F3D56"/>
<path d="M129.622 325.131C128.277 323.787 126.908 322.474 125.516 321.192C125.346 321.038 125.175 320.88 125.005 320.727L125.921 320.081L128.394 318.329L128.418 318.312L128.445 318.461L129.622 325.131Z" fill="#FFB6B6"/>
<path d="M133.451 329.039C133.011 328.578 132.574 328.126 132.135 327.678H132.132C131.423 326.944 130.713 326.221 130.001 325.509C129.875 325.381 129.75 325.258 129.622 325.131C128.277 323.787 126.908 322.474 125.516 321.192C125.346 321.038 125.175 320.88 125.005 320.727C122.312 318.265 119.545 316.033 116.713 314.039C114.854 312.748 112.97 311.585 111.068 310.592H111.065L109.57 306.469L102.843 287.899L101.364 283.82C101.364 283.82 96.3204 286.279 89.1826 288.637C86.5848 289.498 83.7127 290.341 80.6993 291.052C77.4781 291.807 74.0996 292.409 70.7426 292.699C69.1413 292.839 67.5453 292.91 65.9734 292.888C61.9102 292.844 58.0069 292.216 54.5886 290.723C53.4482 288.958 50.0112 286.556 47.5493 284.356H47.5467C46.5129 283.434 45.655 282.551 45.2047 281.765C42.6096 277.242 44.8264 273.716 42.519 268.781C42.488 266.97 42.5441 265.158 42.6869 263.362C42.7109 263.064 42.7349 262.761 42.7642 262.453L43.4915 242.097L48.8948 240.92L57.117 239.128L66.024 237.188L67.0045 249.842C67.0045 249.842 73.9398 249.263 82.7268 249.456C96.8399 249.772 115.725 252.091 118.283 262.041C118.522 262.976 118.762 263.92 119.002 264.864C119.572 267.121 120.137 269.39 120.697 271.67C122.724 279.925 124.658 288.259 126.425 296.137C127.523 301.037 128.556 305.762 129.508 310.184C130.272 313.741 130.981 317.104 131.628 320.2C132.22 323.028 132.755 325.631 133.232 327.967C133.307 328.332 133.379 328.692 133.451 329.039Z" fill="#2F2E41"/>
<path d="M83.7458 205.701L66.6792 181.813L77.7829 163.293L85.5295 184.204L114.244 193.587C115.108 192.516 116.142 191.882 117.22 191.763C118.298 191.643 119.374 192.044 120.316 192.915C121.259 193.786 122.027 195.09 122.528 196.668C123.029 198.247 123.24 200.031 123.135 201.803C123.031 203.576 122.617 205.261 121.942 206.651C121.267 208.042 120.361 209.079 119.334 209.636C118.308 210.193 117.205 210.246 116.161 209.788C115.117 209.33 114.176 208.381 113.453 207.057L83.7458 205.701Z" fill="#A0616A"/>
<path d="M51.5963 150.419C49.6239 160.993 68.4083 186.214 68.4083 186.214C68.617 183.675 79.267 205.567 79.9916 203.584C82.0509 197.95 84.3169 184.022 86.6943 182.241C88.0539 181.223 80.2543 167.073 80.2543 167.073C80.2543 167.073 76.2758 158.398 71.0227 147.404C69.5726 144.25 67.6619 141.753 65.4685 140.143C63.2751 138.534 60.8702 137.865 58.4779 138.2C58.4779 138.2 53.5686 139.844 51.5963 150.419Z" fill="#3F3D56"/>
<path d="M59.9015 127.008C66.2765 127.008 71.4445 118.491 71.4445 107.985C71.4445 97.4782 66.2765 88.9611 59.9015 88.9611C53.5264 88.9611 48.3584 97.4782 48.3584 107.985C48.3584 118.491 53.5264 127.008 59.9015 127.008Z" fill="#A0616A"/>
<path d="M65.673 139.582C68.1598 142.018 69.6474 146.495 70.5014 151.051C72.0823 159.484 73.034 168.204 73.3353 177.018L74.2372 203.403L85.4079 259.585C75.7266 273.086 39.3361 262.653 39.3361 262.653C39.3361 262.653 38.2191 262.04 39.3361 260.199C40.4532 258.358 41.5407 259.989 40.4236 258.148C39.3066 256.307 40.0766 258.358 40.449 256.517C40.8214 254.676 40.449 255.903 40.0766 255.289C39.7043 254.676 42.9592 249.153 42.9592 249.153L39.9804 216.904L36.2568 151.855C40.7251 142.65 49.7114 137.224 49.7114 137.224L52.0334 130.336L63.6431 131.866L65.673 139.582Z" fill="#3F3D56"/>
<path d="M69.417 97.8777C70.3142 98.9805 70.9788 100.519 71.3174 102.277C71.4475 99.4043 71.4558 96.5198 71.3422 93.6448C71.2061 91.6246 70.3431 91.1702 69.3438 90.6436C68.4413 90.1679 67.4207 89.6305 67.1461 87.6693C63.5176 81.8519 57.2012 82.1453 52.8784 84.1745C50.4998 85.2911 49.1311 86.7258 49.0086 87.5662L48.9833 87.7392L48.8867 87.8188C47.0531 89.3297 46.6962 94.1007 46.7198 97.837C46.7645 104.876 48.2393 112.871 49.0701 113.521C49.1141 113.555 49.1252 113.542 49.1442 113.516C50.3952 111.868 51.9215 113.641 52.5922 114.605C52.9878 110.23 54.2616 106.199 56.2102 103.157C58.1588 100.115 60.6697 98.2368 63.3419 97.8225C64.2146 97.6834 65.0803 97.4442 65.9327 97.1065C66.3652 96.9221 66.8097 96.826 67.2563 96.8202C68.0252 96.801 68.7792 97.17 69.417 97.8777V97.8777Z" fill="#2F2E41"/>
<path d="M54.8722 234.362L51.3412 231.382C51.152 231.159 51.0176 230.833 50.9626 230.461C50.9076 230.089 50.9356 229.696 51.0415 229.356C51.1473 229.015 51.3241 228.748 51.5394 228.605C51.7547 228.461 51.9942 228.449 52.2141 228.573L55.7452 231.553C55.9343 231.775 56.0687 232.102 56.1238 232.474C56.1788 232.846 56.1508 233.238 56.0449 233.579C55.939 233.92 55.7623 234.186 55.547 234.33C55.3317 234.474 55.0922 234.485 54.8722 234.362L54.8722 234.362Z" fill="#C7C5EF"/>
<path d="M42.9883 226.377L37.1797 190.739L52.7019 185.896L51.8672 210.358L72.262 244.967C73.3417 244.895 74.4109 245.341 75.3393 246.253C76.2677 247.164 77.0151 248.501 77.4904 250.1C77.9657 251.7 78.1484 253.493 78.0161 255.26C77.8839 257.028 77.4425 258.694 76.7456 260.055C76.0488 261.416 75.1268 262.414 74.0919 262.926C73.0569 263.439 71.9539 263.444 70.9173 262.941C69.8806 262.438 68.9551 261.449 68.2536 260.094C67.5522 258.74 67.105 257.078 66.9667 255.312L42.9883 226.377Z" fill="#A0616A"/>
<path d="M35.5911 150.781C30.3223 157.636 37.0848 195.98 37.0848 195.98C38.1318 194.086 39.3485 222.073 40.6283 221.12C44.2655 218.412 50.932 209.072 53.5021 209.833C54.9719 210.269 53.432 191.321 53.432 191.321C53.432 191.321 53.1488 180.457 52.6165 166.491C52.5104 162.538 51.7992 158.693 50.5491 155.315C49.2989 151.937 47.5505 149.135 45.4665 147.17C45.4665 147.17 40.8599 143.926 35.5911 150.781Z" fill="#3F3D56"/>
<path d="M218.209 248.938L7.34675 248.543C6.16175 244.402 5.10966 240.162 4.19482 235.839L213.206 236.204C215.217 240.054 216.901 244.338 218.209 248.938V248.938Z" fill="#3F3D56"/>
<path d="M151.049 341.07C149.959 341.94 148.86 342.778 147.75 343.586C145.907 341.861 144.084 340.056 142.272 338.212L148.992 333.346L151.049 341.07Z" fill="#FFB6B6"/>
<path d="M200.041 280.562C198.949 282.977 197.822 285.344 196.66 287.662C195.589 289.801 194.49 291.898 193.362 293.955C192.895 294.807 192.424 295.654 191.942 296.493C191.054 298.06 190.148 299.602 189.221 301.116C187.553 301.981 184.175 303.505 180.554 304.928C177.919 305.96 175.156 306.939 172.828 307.562C171.524 307.948 170.205 308.18 168.882 308.256C167.31 308.278 165.714 308.208 164.112 308.067C162.306 307.909 160.497 307.663 158.709 307.347C154.06 306.544 149.557 305.292 145.672 304.006C144.25 303.54 142.912 303.066 141.681 302.605C139.35 301.74 137.4 300.932 135.987 300.317C134.397 299.632 133.491 299.189 133.491 299.189L129.508 310.184L127.44 315.888L125.922 320.081L125.517 321.192C125.346 321.039 125.176 320.88 125.005 320.727C122.312 318.265 119.545 316.033 116.714 314.039C114.854 312.748 112.97 311.585 111.068 310.592H111.065C110.338 310.215 109.608 309.859 108.875 309.534C109.104 308.52 109.336 307.498 109.57 306.469C110.007 304.55 110.453 302.614 110.908 300.66C111.891 296.427 112.909 292.132 113.956 287.86C114.814 284.352 115.688 280.856 116.572 277.409C116.98 275.82 117.809 274.423 118.968 273.198C119.521 272.623 120.099 272.112 120.697 271.67C124.014 269.181 128.9 267.56 134.285 266.52C134.73 266.436 135.178 266.353 135.628 266.274C140.085 265.501 144.815 265.101 149.237 264.917C151.451 264.825 153.588 264.79 155.576 264.785C156.218 264.785 156.842 264.788 157.449 264.794H157.452C159.09 264.807 160.598 264.847 161.925 264.891C162.183 264.899 162.434 264.912 162.679 264.921H162.682C162.847 264.926 163.009 264.934 163.169 264.939C166.071 265.062 167.851 265.211 167.851 265.211L168.541 256.289L168.682 254.488L168.815 252.776V252.771L168.831 252.556L168.94 252.552L170.859 252.49L186.983 251.972L195.792 251.687L194.396 261.549L192.091 277.822C192.325 280.395 200.121 278.38 200.041 280.562Z" fill="#2F2E41"/>
<path d="M153.036 339.446C152.378 339.999 151.715 340.543 151.049 341.07C149.959 341.94 148.86 342.778 147.75 343.586C145.907 341.861 144.084 340.056 142.272 338.212C139.315 335.199 136.387 332.082 133.451 329.039C133.011 328.578 132.574 328.126 132.134 327.678H132.132C130.922 324.718 129.689 321.636 128.444 318.461C128.426 318.417 128.41 318.373 128.394 318.329C128.074 317.521 127.756 316.707 127.44 315.888C125.45 310.75 123.449 305.393 121.506 299.922L126.425 296.137L135.569 289.103L137.146 287.891L141.681 302.605L145.725 315.73L146.626 318.65L153.036 339.446Z" fill="#2F2E41"/>
<path d="M154.415 268.802L177.728 231.749L184.189 201.596L174.658 194.765C169.763 202.494 164.471 226.567 164.471 226.567L148.428 260.204C148.303 260.275 148.178 260.35 148.055 260.439C147.332 260.964 146.704 261.788 146.231 262.83C145.758 263.872 145.456 265.098 145.355 266.388C145.253 267.679 145.355 268.991 145.651 270.198C145.947 271.404 146.427 272.465 147.044 273.277C147.661 274.088 148.395 274.624 149.175 274.832C149.954 275.039 150.753 274.912 151.494 274.462C152.235 274.012 152.893 273.255 153.405 272.263C153.917 271.272 154.264 270.08 154.415 268.802V268.802Z" fill="#FFB8B8"/>
<path d="M171.977 198.132L184.066 204.457L184.112 204.445C188.612 203.203 192.345 191.091 194.685 181.149C195.455 177.87 195.441 174.231 194.645 170.968C193.849 167.706 192.332 165.063 190.399 163.574V163.574C188.969 162.491 187.383 162.09 185.822 162.414C184.26 162.739 182.785 163.777 181.563 165.411L175.354 173.772L171.977 198.132Z" fill="#C7C5EF"/>
<path d="M199.993 281.007L200.063 280.852C203.835 272.607 198.676 252.19 197.896 249.229L201.404 247.517L200.792 236.512L200.498 231.604L203.225 227.336L203.234 227.227L205.109 205.232L207.563 190.674C208.488 185.17 208.508 179.36 207.62 173.84C206.732 168.32 204.969 163.289 202.511 159.263L197.495 151.054L191.485 135.551L181.409 135.123L177.786 145.731C174.416 146.864 171.394 149.91 169.247 154.337C167.1 158.765 165.963 164.293 166.035 169.96L166.376 198.201L162.76 233.192L162.659 239.548L159.11 245.719L159.766 251.959L157.112 253.701L155.813 262.568C155.317 263.591 152.041 270.414 152.011 272.317C152.007 272.602 152.13 272.884 152.4 273.202C154.52 275.702 166.371 281.119 171.705 277.862C177.386 274.396 199.653 280.906 199.877 280.972L199.993 281.007Z" fill="#C7C5EF"/>
<path d="M185.567 130.37C192.939 130.37 198.916 120.52 198.916 108.369C198.916 96.2189 192.939 86.3689 185.567 86.3689C178.194 86.3689 172.217 96.2189 172.217 108.369C172.217 120.52 178.194 130.37 185.567 130.37Z" fill="#FFB8B8"/>
<path d="M183.938 130.665C186.006 130.718 188.072 130.48 190.115 129.953C192.139 129.275 196.669 123.804 197.931 120.513C198.869 118.067 199.469 114.248 199.807 111.475C200.263 107.805 200.245 104.019 199.756 100.361C199.268 96.7028 198.318 93.2549 196.969 90.2404C196.451 88.9795 195.735 87.9729 194.898 87.3272C194.824 87.2794 194.747 87.237 194.67 87.2008C193.451 86.6719 192.355 85.5543 191.523 83.9915C191.362 83.6754 191.187 83.3788 191 83.1041C190.06 81.7971 188.946 80.8751 187.749 80.4136C185.816 79.5611 183.019 80.4073 179.435 82.9311C177.635 84.1991 175.666 83.7402 174.151 83.1987C174.066 83.1717 173.979 83.1818 173.897 83.228C173.815 83.2742 173.742 83.355 173.685 83.4622C173.04 84.4593 172.191 85.0174 171.307 85.0244C170.766 85.0636 170.197 86.299 169.511 87.91C169.355 88.2757 169.173 88.7026 169.042 88.9622L169.025 88.4634L168.718 89.0198C168.237 89.8943 167.898 90.9553 167.732 92.1041C167.567 93.2528 167.58 94.4519 167.771 95.5898C167.963 96.7276 168.326 97.7672 168.826 98.6116C169.327 99.4561 169.949 100.078 170.635 100.419C171.18 100.658 171.738 100.805 172.3 100.857C172.641 100.907 172.994 100.96 173.332 101.056C174.416 101.422 175.424 102.245 176.258 103.445C177.092 104.645 177.722 106.18 178.088 107.902C178.175 108.3 178.316 108.66 178.5 108.953C178.684 109.247 178.907 109.468 179.151 109.597C179.396 109.726 179.655 109.762 179.908 109.7C180.162 109.638 180.404 109.481 180.615 109.241C180.967 108.79 181.38 108.485 181.819 108.353C182.257 108.221 182.709 108.267 183.135 108.485C183.503 108.822 183.79 109.358 183.947 110.002C184.137 110.72 184.453 111.327 184.855 111.748C186.227 112.914 186.321 118.078 185.828 122.384C185.353 126.534 184.414 129.536 183.545 129.684C182.876 129.798 182.799 129.877 182.751 130.072L182.707 130.247L182.783 130.41C183.152 130.631 183.546 130.718 183.938 130.665V130.665Z" fill="#2F2E41"/>
<path d="M175.292 191.48L170.145 174.568C162.673 175.409 147.845 189.646 147.845 189.646L119.79 199.449C118.959 198.922 118.058 198.766 117.179 198.996C116.299 199.225 115.472 199.832 114.78 200.756C114.089 201.68 113.557 202.888 113.238 204.258C112.92 205.629 112.826 207.113 112.966 208.562C113.106 210.011 113.476 211.374 114.037 212.513C114.599 213.652 115.332 214.527 116.164 215.05C116.996 215.573 117.897 215.726 118.776 215.493C119.655 215.26 120.481 214.65 121.172 213.723L156.86 209.507L175.292 191.48Z" fill="#FFB8B8"/>
<path d="M173.215 194.257L186.658 177.793L189.026 163.73C189.485 160.967 189.465 158.047 188.97 155.3C188.475 152.554 187.523 150.09 186.223 148.189V148.189C184.45 145.63 182.153 144.277 179.798 144.402C177.442 144.527 175.203 146.122 173.534 148.863C168.475 157.185 162.706 168.794 163.945 176.844L163.958 176.926L173.215 194.257Z" fill="#C7C5EF"/>
<path d="M156.575 238.294H120.606V246.198H156.575V238.294Z" fill="white"/>
<path d="M64.6544 238.294H28.6855V246.198H64.6544V238.294Z" fill="white"/>
<path d="M68.8545 200.285V237.917C68.8547 238.397 68.9704 238.857 69.1762 239.196C69.382 239.535 69.661 239.726 69.952 239.726H103.79C104.081 239.726 104.36 239.535 104.566 239.196C104.772 238.857 104.888 238.397 104.888 237.917V200.285C104.887 199.805 104.771 199.346 104.566 199.008C104.36 198.669 104.081 198.479 103.79 198.478H69.952C69.6612 198.479 69.3825 198.669 69.1768 199.008C68.9711 199.346 68.8552 199.805 68.8545 200.285Z" fill="#3F3D56"/>
<path d="M69.6484 200.753V237.453C69.6487 237.709 69.7106 237.955 69.8205 238.136C69.9305 238.317 70.0795 238.419 70.235 238.42H103.509C103.664 238.419 103.813 238.317 103.923 238.136C104.033 237.955 104.095 237.709 104.095 237.453V200.753C104.095 200.496 104.034 200.25 103.924 200.069C103.814 199.887 103.665 199.785 103.509 199.784H70.235C70.0793 199.785 69.9301 199.887 69.8202 200.069C69.7102 200.25 69.6485 200.496 69.6484 200.753Z" fill="#C7C5EF"/>
<path d="M68.147 245.257C68.209 245.385 68.2878 245.488 68.3774 245.559C68.4671 245.63 68.5654 245.666 68.6648 245.665H104.898C104.997 245.665 105.095 245.628 105.184 245.558C105.274 245.488 105.352 245.385 105.415 245.258C105.477 245.132 105.522 244.983 105.545 244.825C105.568 244.666 105.57 244.501 105.55 244.341L104.987 239.938C104.964 239.758 104.914 239.591 104.841 239.452C104.769 239.312 104.676 239.205 104.572 239.14C104.497 239.091 104.416 239.066 104.335 239.066H69.225C69.144 239.066 69.0638 239.091 68.9884 239.14C68.8843 239.205 68.7918 239.312 68.7193 239.452C68.6468 239.591 68.5966 239.758 68.5733 239.938L68.0108 244.341C67.9908 244.501 67.9927 244.666 68.0162 244.824C68.0398 244.983 68.0844 245.13 68.147 245.257V245.257Z" fill="#2F2E41"/>
<path d="M103.092 240.963H103.948C104.02 240.963 104.078 240.867 104.078 240.748V240.074C104.078 239.955 104.02 239.859 103.948 239.859H103.092C103.02 239.859 102.962 239.955 102.962 240.074V240.748C102.962 240.867 103.02 240.963 103.092 240.963Z" fill="#3F3D56"/>
<path d="M100.86 240.963H101.716C101.788 240.963 101.846 240.867 101.846 240.748V240.074C101.846 239.955 101.788 239.859 101.716 239.859H100.86C100.788 239.859 100.73 239.955 100.73 240.074V240.748C100.73 240.867 100.788 240.963 100.86 240.963Z" fill="#3F3D56"/>
<path d="M98.6284 240.963H99.4842C99.556 240.963 99.6143 240.867 99.6143 240.748V240.074C99.6143 239.955 99.556 239.859 99.4842 239.859H98.6284C98.5565 239.859 98.4983 239.955 98.4983 240.074V240.748C98.4983 240.867 98.5565 240.963 98.6284 240.963Z" fill="#3F3D56"/>
<path d="M96.3964 240.963H97.2522C97.3241 240.963 97.3823 240.867 97.3823 240.748V240.074C97.3823 239.955 97.3241 239.859 97.2522 239.859H96.3964C96.3246 239.859 96.2664 239.955 96.2664 240.074V240.748C96.2664 240.867 96.3246 240.963 96.3964 240.963Z" fill="#3F3D56"/>
<path d="M94.1645 240.963H95.0203C95.0922 240.963 95.1504 240.867 95.1504 240.748V240.074C95.1504 239.955 95.0922 239.859 95.0203 239.859H94.1645C94.0927 239.859 94.0344 239.955 94.0344 240.074V240.748C94.0344 240.867 94.0927 240.963 94.1645 240.963Z" fill="#3F3D56"/>
<path d="M91.9326 240.963H92.7884C92.8602 240.963 92.9185 240.867 92.9185 240.748V240.074C92.9185 239.955 92.8602 239.859 92.7884 239.859H91.9326C91.8607 239.859 91.8025 239.955 91.8025 240.074V240.748C91.8025 240.867 91.8607 240.963 91.9326 240.963Z" fill="#3F3D56"/>
<path d="M89.7006 240.963H90.5565C90.6283 240.963 90.6865 240.867 90.6865 240.748V240.074C90.6865 239.955 90.6283 239.859 90.5565 239.859H89.7006C89.6288 239.859 89.5706 239.955 89.5706 240.074V240.748C89.5706 240.867 89.6288 240.963 89.7006 240.963Z" fill="#3F3D56"/>
<path d="M87.4687 240.963H88.3245C88.3964 240.963 88.4546 240.867 88.4546 240.748V240.074C88.4546 239.955 88.3964 239.859 88.3245 239.859H87.4687C87.3969 239.859 87.3386 239.955 87.3386 240.074V240.748C87.3386 240.867 87.3969 240.963 87.4687 240.963Z" fill="#3F3D56"/>
<path d="M85.2368 240.963H86.0926C86.1644 240.963 86.2227 240.867 86.2227 240.748V240.074C86.2227 239.955 86.1644 239.859 86.0926 239.859H85.2368C85.1649 239.859 85.1067 239.955 85.1067 240.074V240.748C85.1067 240.867 85.1649 240.963 85.2368 240.963Z" fill="#3F3D56"/>
<path d="M83.0048 240.963H83.8607C83.9325 240.963 83.9907 240.867 83.9907 240.748V240.074C83.9907 239.955 83.9325 239.859 83.8607 239.859H83.0048C82.933 239.859 82.8748 239.955 82.8748 240.074V240.748C82.8748 240.867 82.933 240.963 83.0048 240.963Z" fill="#3F3D56"/>
<path d="M80.7729 240.963H81.6287C81.7006 240.963 81.7588 240.867 81.7588 240.748V240.074C81.7588 239.955 81.7006 239.859 81.6287 239.859H80.7729C80.7011 239.859 80.6428 239.955 80.6428 240.074V240.748C80.6428 240.867 80.7011 240.963 80.7729 240.963Z" fill="#3F3D56"/>
<path d="M78.541 240.963H79.3968C79.4686 240.963 79.5269 240.867 79.5269 240.748V240.074C79.5269 239.955 79.4686 239.859 79.3968 239.859H78.541C78.4691 239.859 78.4109 239.955 78.4109 240.074V240.748C78.4109 240.867 78.4691 240.963 78.541 240.963Z" fill="#3F3D56"/>
<path d="M76.309 240.963H77.1649C77.2367 240.963 77.2949 240.867 77.2949 240.748V240.074C77.2949 239.955 77.2367 239.859 77.1649 239.859H76.309C76.2372 239.859 76.179 239.955 76.179 240.074V240.748C76.179 240.867 76.2372 240.963 76.309 240.963Z" fill="#3F3D56"/>
<path d="M74.0771 240.963H74.9329C75.0048 240.963 75.063 240.867 75.063 240.748V240.074C75.063 239.955 75.0048 239.859 74.9329 239.859H74.0771C74.0053 239.859 73.947 239.955 73.947 240.074V240.748C73.947 240.867 74.0053 240.963 74.0771 240.963Z" fill="#3F3D56"/>
<path d="M71.8452 240.963H72.701C72.7728 240.963 72.8311 240.867 72.8311 240.748V240.074C72.8311 239.955 72.7728 239.859 72.701 239.859H71.8452C71.7733 239.859 71.7151 239.955 71.7151 240.074V240.748C71.7151 240.867 71.7733 240.963 71.8452 240.963Z" fill="#3F3D56"/>
<path d="M69.6132 240.963H70.469C70.5409 240.963 70.5991 240.867 70.5991 240.748V240.074C70.5991 239.955 70.5409 239.859 70.469 239.859H69.6132C69.5414 239.859 69.4832 239.955 69.4832 240.074V240.748C69.4832 240.867 69.5414 240.963 69.6132 240.963Z" fill="#3F3D56"/>
<path d="M103.119 242.802H103.974C104.046 242.802 104.104 242.706 104.104 242.587V241.913C104.104 241.794 104.046 241.698 103.974 241.698H103.119C103.047 241.698 102.989 241.794 102.989 241.913V242.587C102.989 242.706 103.047 242.802 103.119 242.802Z" fill="#3F3D56"/>
<path d="M100.887 242.802H101.742C101.814 242.802 101.873 242.706 101.873 242.587V241.913C101.873 241.794 101.814 241.698 101.742 241.698H100.887C100.815 241.698 100.757 241.794 100.757 241.913V242.587C100.757 242.706 100.815 242.802 100.887 242.802Z" fill="#3F3D56"/>
<path d="M98.6547 242.802H99.5105C99.5824 242.802 99.6406 242.706 99.6406 242.587V241.913C99.6406 241.794 99.5824 241.698 99.5105 241.698H98.6547C98.5829 241.698 98.5246 241.794 98.5246 241.913V242.587C98.5246 242.706 98.5829 242.802 98.6547 242.802Z" fill="#3F3D56"/>
<path d="M96.4228 242.802H97.2786C97.3505 242.802 97.4087 242.706 97.4087 242.587V241.913C97.4087 241.794 97.3505 241.698 97.2786 241.698H96.4228C96.351 241.698 96.2927 241.794 96.2927 241.913V242.587C96.2927 242.706 96.351 242.802 96.4228 242.802Z" fill="#3F3D56"/>
<path d="M94.1909 242.802H95.0467C95.1185 242.802 95.1768 242.706 95.1768 242.587V241.913C95.1768 241.794 95.1185 241.698 95.0467 241.698H94.1909C94.119 241.698 94.0608 241.794 94.0608 241.913V242.587C94.0608 242.706 94.119 242.802 94.1909 242.802Z" fill="#3F3D56"/>
<path d="M91.9589 242.802H92.8148C92.8866 242.802 92.9448 242.706 92.9448 242.587V241.913C92.9448 241.794 92.8866 241.698 92.8148 241.698H91.9589C91.8871 241.698 91.8289 241.794 91.8289 241.913V242.587C91.8289 242.706 91.8871 242.802 91.9589 242.802Z" fill="#3F3D56"/>
<path d="M89.727 242.802H90.5828C90.6547 242.802 90.7129 242.706 90.7129 242.587V241.913C90.7129 241.794 90.6547 241.698 90.5828 241.698H89.727C89.6552 241.698 89.5969 241.794 89.5969 241.913V242.587C89.5969 242.706 89.6552 242.802 89.727 242.802Z" fill="#3F3D56"/>
<path d="M87.4951 242.802H88.3509C88.4227 242.802 88.481 242.706 88.481 242.587V241.913C88.481 241.794 88.4227 241.698 88.3509 241.698H87.4951C87.4232 241.698 87.365 241.794 87.365 241.913V242.587C87.365 242.706 87.4232 242.802 87.4951 242.802Z" fill="#3F3D56"/>
<path d="M85.2631 242.802H86.119C86.1908 242.802 86.249 242.706 86.249 242.587V241.913C86.249 241.794 86.1908 241.698 86.119 241.698H85.2631C85.1913 241.698 85.1331 241.794 85.1331 241.913V242.587C85.1331 242.706 85.1913 242.802 85.2631 242.802Z" fill="#3F3D56"/>
<path d="M83.0312 242.802H83.887C83.9589 242.802 84.0171 242.706 84.0171 242.587V241.913C84.0171 241.794 83.9589 241.698 83.887 241.698H83.0312C82.9594 241.698 82.9011 241.794 82.9011 241.913V242.587C82.9011 242.706 82.9594 242.802 83.0312 242.802Z" fill="#3F3D56"/>
<path d="M80.7993 242.802H81.6551C81.7269 242.802 81.7852 242.706 81.7852 242.587V241.913C81.7852 241.794 81.7269 241.698 81.6551 241.698H80.7993C80.7274 241.698 80.6692 241.794 80.6692 241.913V242.587C80.6692 242.706 80.7274 242.802 80.7993 242.802Z" fill="#3F3D56"/>
<path d="M78.5673 242.802H79.4232C79.495 242.802 79.5532 242.706 79.5532 242.587V241.913C79.5532 241.794 79.495 241.698 79.4232 241.698H78.5673C78.4955 241.698 78.4373 241.794 78.4373 241.913V242.587C78.4373 242.706 78.4955 242.802 78.5673 242.802Z" fill="#3F3D56"/>
<path d="M76.3354 242.802H77.1912C77.2631 242.802 77.3213 242.706 77.3213 242.587V241.913C77.3213 241.794 77.2631 241.698 77.1912 241.698H76.3354C76.2636 241.698 76.2053 241.794 76.2053 241.913V242.587C76.2053 242.706 76.2636 242.802 76.3354 242.802Z" fill="#3F3D56"/>
<path d="M74.1035 242.802H74.9593C75.0311 242.802 75.0894 242.706 75.0894 242.587V241.913C75.0894 241.794 75.0311 241.698 74.9593 241.698H74.1035C74.0316 241.698 73.9734 241.794 73.9734 241.913V242.587C73.9734 242.706 74.0316 242.802 74.1035 242.802Z" fill="#3F3D56"/>
<path d="M71.8715 242.802H72.7274C72.7992 242.802 72.8574 242.706 72.8574 242.587V241.913C72.8574 241.794 72.7992 241.698 72.7274 241.698H71.8715C71.7997 241.698 71.7415 241.794 71.7415 241.913V242.587C71.7415 242.706 71.7997 242.802 71.8715 242.802Z" fill="#3F3D56"/>
<path d="M69.6396 242.802H70.4954C70.5673 242.802 70.6255 242.706 70.6255 242.587V241.913C70.6255 241.794 70.5673 241.698 70.4954 241.698H69.6396C69.5678 241.698 69.5095 241.794 69.5095 241.913V242.587C69.5095 242.706 69.5678 242.802 69.6396 242.802Z" fill="#3F3D56"/>
<path d="M84.5935 245.009H93.261C93.3329 245.009 93.3911 244.913 93.3911 244.794V244.12C93.3911 244.001 93.3329 243.905 93.261 243.905H84.5935C84.5217 243.905 84.4634 244.001 84.4634 244.12V244.794C84.4634 244.913 84.5217 245.009 84.5935 245.009Z" fill="#3F3D56"/>
</g>
<g clip-path="url(#clip1_159_269)">
<path d="M253.364 394.771L256.198 394.867L255.127 407.241L253.207 407.176L253.364 394.771Z" fill="#FFB6B6"/>
<path d="M259.795 412.923L259.795 412.923C259.795 412.587 259.673 412.283 259.485 412.15L257.37 410.651L255.928 405.854L255.906 401.021L252.935 400.52L252.505 403.599C252.505 403.599 253.39 403.41 252.298 404.77C251.205 406.13 251.731 408.791 251.731 408.791L251.493 413.765H253.459L253.565 410.672C255.094 411.603 255.469 413.765 255.469 413.765H259.281C259.565 413.765 259.795 413.388 259.795 412.923H259.795H259.795Z" fill="#2F2E41"/>
<path d="M257.515 394.907L260.349 395.003L259.278 407.378L257.358 407.313L257.515 394.907Z" fill="#FFB6B6"/>
<path d="M263.946 413.059H263.946C263.946 412.723 263.824 412.419 263.636 412.286L261.521 410.787L260.079 405.99L260.057 401.158L257.086 400.657L256.656 403.735C256.656 403.735 257.541 403.546 256.449 404.906C255.356 406.266 255.882 408.928 255.882 408.928L255.644 413.902H257.61L257.716 410.808C259.245 411.739 259.62 413.902 259.62 413.902H263.432C263.716 413.902 263.946 413.524 263.946 413.059L263.946 413.059H263.946Z" fill="#2F2E41"/>
<path d="M254.265 322.324L251.052 333.327C249.982 336.995 249.642 341.017 250.072 344.945L251.634 398.999H257.807L260.501 350.864L261.033 369.878L254.853 396.968H260.931L268.733 369.878L269.311 349.018L266.54 332.831L254.265 322.324L254.265 322.324Z" fill="#2F2E41"/>
<path d="M341.297 275.244V247.761C341.297 238.976 336.332 231.854 330.207 231.854H289.613C283.489 231.854 278.524 238.976 278.524 247.761V398.535C278.524 407.32 283.489 414.442 289.613 414.442H330.207C336.331 414.442 341.296 407.32 341.296 398.535V294.807H341.296C341.682 294.807 341.995 294.358 341.995 293.805L341.995 276.246C341.995 275.693 341.682 275.244 341.297 275.244L341.297 275.244V275.244Z" fill="#3F3D56"/>
<path d="M339.214 246.438V399.343C332.734 398.772 336.03 411.02 330.807 411.405H289.38C284.735 411.406 280.968 406.006 280.967 399.343V246.438C280.968 239.775 284.734 234.375 289.38 234.376H292.435C291.603 237.311 298.317 238.266 298.832 238.267H320.049C322.258 238.263 327.586 235.06 327.392 234.376H330.805C335.448 234.377 339.213 239.776 339.214 246.436L339.214 246.438H339.214Z" fill="white"/>
<path d="M278.197 278.61C277.902 278.61 277.662 278.955 277.662 279.379V285.526C277.662 285.95 277.902 286.294 278.197 286.294C278.493 286.294 278.733 285.95 278.733 285.526V279.379C278.733 278.955 278.493 278.61 278.197 278.61Z" fill="#3F3D56"/>
<path d="M278.197 297.051C277.902 297.051 277.662 297.396 277.662 297.82V309.73C277.662 310.153 277.902 310.498 278.197 310.498C278.493 310.498 278.733 310.153 278.733 309.73V297.82C278.733 297.396 278.493 297.051 278.197 297.051Z" fill="#3F3D56"/>
<path d="M278.197 313.956C277.902 313.956 277.662 314.3 277.662 314.724V326.634C277.662 327.058 277.902 327.402 278.197 327.402C278.493 327.402 278.733 327.058 278.733 326.634V314.724C278.733 314.3 278.493 313.956 278.197 313.956Z" fill="#3F3D56"/>
<path d="M404.547 404.723L402.005 407.22L394.079 394.345L397.83 390.659L404.547 404.723Z" fill="#FFB6B6"/>
<path d="M395.799 413.198C395.811 413.467 396.064 414.125 396.17 414.348C396.496 415.031 397.147 415.205 397.624 414.737L405.496 407.001C405.821 406.682 405.904 406.045 405.681 405.579L405.456 405.109C405.456 405.109 405.171 403.313 403.537 402.36C403.537 402.36 403.192 404.702 400.683 404.03L399.699 403.32L398.113 409.778L396.5 411.82C396.147 412.267 395.768 412.524 395.799 413.198L395.799 413.198L395.799 413.198V413.198Z" fill="#2F2E41"/>
<path d="M385.805 411.353L382.724 411.353L381.258 394.305L385.03 394.979L385.805 411.353Z" fill="#FFB6B6"/>
<path d="M375.249 411.253C375.153 411.485 375.102 412.233 375.102 412.502C375.102 413.331 375.57 414.002 376.148 414.002H385.69C386.084 414.002 386.403 413.544 386.403 412.979V412.409C386.403 412.409 386.875 410.696 385.904 408.586C385.904 408.586 384.696 410.238 382.891 407.65L382.359 406.266L378.506 410.308L376.37 410.685C375.903 410.768 375.489 410.672 375.249 411.253H375.249V411.253Z" fill="#2F2E41"/>
<path d="M375.002 346.568L375.234 350.588L374.772 353.785L375.613 357.155L376.64 374.975L381.997 405.698L386.087 406.933L384.124 376.244L385.647 350.931L375.002 346.568V346.568Z" fill="#2F2E41"/>
<path d="M392.383 329.115L376.741 329.427L375.002 346.567L385.647 353.735L385.308 378.213L397.163 402.829L403.477 397.655L392.897 376.75L395.859 341.892L392.383 329.115H392.383V329.115Z" fill="#2F2E41"/>
<path d="M380.804 288.82L378.044 293.901L379.348 332.855L389.559 332.543L391.297 298.575L389.124 289.849L388.338 287.894L387.398 285.362L381.37 285.98L380.804 288.82H380.804V288.82Z" fill="#E6E6E6"/>
<path d="M376.728 312.91L377.28 320.872L376.602 330.033L375.754 332.517L373.817 342.398C373.817 342.398 371.84 346.719 376.185 347.029C380.53 347.34 394.773 345.318 394.773 345.318C394.773 345.318 396.548 345.256 395.774 339.928C394.524 336.846 395.33 332.503 395.33 332.503L393.686 323.816L394.121 315.713L397.162 294.522C394.461 291.477 391.435 289.297 388.146 287.821L385.265 298.687L380.976 288.756L379.347 290.47C377.149 291.297 375.215 292.568 373.685 294.522L376.728 312.91V312.91Z" fill="#2F2E41"/>
<path d="M325.159 294.009H294.498C292.396 294.006 290.693 291.563 290.69 288.548V269.643C290.693 266.628 292.396 264.185 294.498 264.182C304.282 260.294 314.543 260.658 325.159 264.182C327.261 264.185 328.964 266.628 328.966 269.643V288.548C328.964 291.563 327.261 294.005 325.159 294.009H325.159Z" fill="#F2F2F2"/>
<path d="M328.283 313.822H291.374C290.997 313.822 290.691 313.383 290.69 312.842V299.709C290.691 299.168 290.997 298.73 291.374 298.729H328.283C328.66 298.73 328.966 299.168 328.966 299.709V312.842C328.966 313.383 328.66 313.822 328.283 313.823V313.822V313.822ZM291.374 299.121C291.148 299.122 290.964 299.385 290.964 299.709V312.842C290.964 313.167 291.148 313.43 291.374 313.43H328.283C328.509 313.43 328.693 313.167 328.693 312.842V299.709C328.693 299.385 328.509 299.122 328.283 299.121H291.374V299.121Z" fill="#E6E6E6"/>
<path d="M302.788 303.529C302.524 303.537 302.314 303.851 302.32 304.23C302.325 304.598 302.532 304.894 302.788 304.902H325.344C325.608 304.916 325.83 304.621 325.84 304.242C325.85 303.863 325.644 303.544 325.38 303.53H302.788V303.529V303.529Z" fill="#E6E6E6"/>
<path d="M302.788 307.648C302.524 307.656 302.314 307.97 302.32 308.349C302.325 308.717 302.532 309.013 302.788 309.021H325.344C325.608 309.035 325.83 308.74 325.84 308.361C325.85 307.982 325.644 307.663 325.38 307.649H302.788V307.648V307.648Z" fill="#E6E6E6"/>
<path d="M296.453 309.021C297.51 309.021 298.366 307.792 298.366 306.276C298.366 304.76 297.51 303.531 296.453 303.531C295.395 303.531 294.539 304.76 294.539 306.276C294.539 307.792 295.395 309.021 296.453 309.021Z" fill="#E6E6E6"/>
<path d="M328.283 378.282H291.374C290.997 378.281 290.691 377.843 290.69 377.302V364.169C290.691 363.628 290.997 363.19 291.374 363.189H328.283C328.66 363.19 328.966 363.628 328.966 364.169V377.302C328.966 377.843 328.66 378.282 328.283 378.282V378.282V378.282ZM291.374 363.581C291.148 363.581 290.964 363.844 290.964 364.169V377.302C290.964 377.627 291.148 377.89 291.374 377.89L324.09 377.428C324.317 377.427 327.749 375.591 327.75 375.266L328.693 364.169C328.693 363.844 328.509 363.581 328.283 363.581H291.374V363.581Z" fill="#E6E6E6"/>
<path d="M302.788 369.947C302.524 369.939 302.305 370.24 302.3 370.619C302.294 370.998 302.504 371.311 302.768 371.319C302.775 371.32 302.782 371.32 302.788 371.319H325.344C325.608 371.334 325.83 371.038 325.84 370.66C325.85 370.281 325.645 369.962 325.38 369.947H302.788V369.947V369.947Z" fill="#E6E6E6"/>
<path d="M296.453 373.481C297.51 373.481 298.366 372.252 298.366 370.736C298.366 369.219 297.51 367.99 296.453 367.99C295.395 367.99 294.539 369.219 294.539 370.736C294.539 372.252 295.395 373.481 296.453 373.481Z" fill="#E6E6E6"/>
<path d="M328.283 351.109H291.374C290.997 351.109 290.691 350.67 290.69 350.129V336.996C290.691 336.455 290.997 336.017 291.374 336.016H328.283C328.66 336.017 328.966 336.455 328.966 336.996V350.129C328.966 350.67 328.66 351.109 328.283 351.11V351.109V351.109ZM291.374 336.408C291.148 336.409 290.964 336.672 290.964 336.996V350.129C290.964 350.454 291.148 350.717 291.374 350.717L324.09 350.255C324.317 350.255 327.749 348.418 327.75 348.093L328.693 336.996C328.693 336.672 328.509 336.409 328.283 336.408H291.374V336.408Z" fill="#E6E6E6"/>
<path d="M302.788 342.774C302.524 342.766 302.305 343.067 302.3 343.446C302.294 343.825 302.504 344.139 302.768 344.147C302.775 344.147 302.782 344.147 302.788 344.147H325.344C325.608 344.161 325.83 343.866 325.84 343.487C325.85 343.108 325.645 342.789 325.38 342.775H302.788V342.774V342.774Z" fill="#E6E6E6"/>
<path d="M296.453 346.308C297.51 346.308 298.366 345.079 298.366 343.563C298.366 342.047 297.51 340.818 296.453 340.818C295.395 340.818 294.539 342.047 294.539 343.563C294.539 345.079 295.395 346.308 296.453 346.308Z" fill="#E6E6E6"/>
<path d="M383.846 285.002C386.825 285.002 389.239 281.539 389.239 277.267C389.239 272.995 386.825 269.532 383.846 269.532C380.868 269.532 378.454 272.995 378.454 277.267C378.454 281.539 380.868 285.002 383.846 285.002Z" fill="#FFB6B6"/>
<path d="M387.807 283.622C388.104 283.695 388.453 282.662 388.786 281.656C389.483 279.551 389.927 278.212 389.96 276.321C389.989 274.708 389.677 275.131 389.373 271.546C389.273 270.364 387.865 270.366 387.578 269.805C387.094 268.856 387.837 268.465 386.632 267.896C384.376 266.829 383.356 268.486 381.923 268.629C381.887 268.633 381.176 269.629 380.78 269.681C380.084 269.771 379.082 269.616 378.632 268.097C378.212 266.676 377.934 270.827 378.309 271.34C378.628 271.776 379.178 272.871 379.192 272.951C379.208 273.041 377.884 270.937 377.663 271.804C377.504 272.428 378.005 275.638 378.409 275.759C378.748 275.86 379.575 274.26 379.388 274.916C378.955 276.438 381.558 277.408 384.674 274.355C384.785 274.246 384.68 274.419 385.066 275.759C385.552 277.449 385.662 277.54 385.653 278.006C385.635 279.013 385.108 279.31 385.262 279.971C385.387 280.507 385.874 280.922 386.241 280.814C386.654 280.692 386.725 279.958 387.024 279.971C387.28 279.983 387.584 280.536 387.611 281.095C387.668 282.272 386.453 282.595 386.241 284.184C386.12 285.08 387.534 283.555 387.807 283.622V283.622Z" fill="#2F2E41"/>
<path d="M400.01 345.448C400.033 344.582 399.912 343.721 399.655 342.936L400.211 333.909L397.208 333.656L396.968 342.841C396.684 343.607 396.533 344.459 396.526 345.325C396.489 347.494 397.238 349.279 398.2 349.314C399.161 349.348 399.972 347.618 400.009 345.45L400.01 345.448V345.448Z" fill="#FFB6B6"/>
<path d="M393.622 309.049L395.99 319.548L396.669 340.99L400.633 340.874L400.941 317.387C400.941 317.387 398.965 300.031 398.304 296.131C397.642 292.23 391.543 293.675 391.543 293.675L393.622 309.049V309.049V309.049Z" fill="#2F2E41"/>
<path d="M295.404 281.678C296.523 282.211 297.697 282.751 298.893 282.66C299.437 282.619 299.96 282.433 300.453 282.102C300.96 281.762 301.422 281.301 301.934 280.98C303.817 279.798 305.684 281.817 307.44 282.575C308.316 282.953 309.237 283.043 310.094 282.517C311.04 281.935 311.755 280.824 312.534 279.897C314.282 277.819 316.562 276.698 318.83 276.783C321.318 276.876 323.727 278.452 325.44 281.031C325.584 281.247 325.812 280.919 325.669 280.703C324.171 278.45 322.153 276.931 320.005 276.47C317.851 276.009 315.616 276.625 313.723 278.163C312.764 278.942 311.996 280.007 311.152 281.002C310.33 281.97 309.416 282.594 308.333 282.388C306.466 282.034 304.86 279.97 302.924 280.157C301.687 280.277 300.804 281.611 299.641 282.037C298.252 282.544 296.802 281.856 295.489 281.231C295.292 281.137 295.207 281.584 295.404 281.678L295.404 281.678V281.678Z" fill="#3F3D56"/>
<path d="M298.908 284.146C299.569 284.146 300.104 283.378 300.104 282.43C300.104 281.483 299.569 280.715 298.908 280.715C298.248 280.715 297.712 281.483 297.712 282.43C297.712 283.378 298.248 284.146 298.908 284.146Z" fill="#FFD446"/>
<path d="M309.234 284.222C309.894 284.222 310.43 283.454 310.43 282.506C310.43 281.559 309.894 280.791 309.234 280.791C308.573 280.791 308.038 281.559 308.038 282.506C308.038 283.454 308.573 284.222 309.234 284.222Z" fill="#FFD446"/>
<path d="M319.719 278.402C320.38 278.402 320.915 277.634 320.915 276.687C320.915 275.739 320.38 274.971 319.719 274.971C319.059 274.971 318.523 275.739 318.523 276.687C318.523 277.634 319.059 278.402 319.719 278.402Z" fill="#FFD446"/>
<path d="M250.319 336.207C246.783 350.649 251.288 362.027 250.353 354.687C249.572 348.553 262.887 329.887 266.895 333.736C266.811 333.113 264.263 321.883 264.014 321.831C264.363 320.569 263.876 320.557 263.856 319.911C263.78 317.413 264.185 314.821 264.973 312.152C265.49 310.091 265.499 308.32 264.998 306.892C264.568 305.718 263.844 304.821 262.972 304.379L260.345 299.83C259.661 298.646 258.652 296.09 257.58 296.1L251.825 295.805C251.661 295.663 249.64 298.156 247.673 299.379C245.539 300.707 245.979 304.33 245.984 304.377L245.989 304.42L246.013 304.451L249.149 317.694L251.983 321.504C251.84 322.101 251.876 322.549 252.145 322.806C251.759 323.216 250.042 335.469 250.319 335.898V336.207L250.319 336.207Z" fill="#FFD446"/>
<path d="M279.889 309.997C279.461 310.242 279.08 310.631 278.778 311.13L274.221 313.371L275.028 316.45L279.564 313.845C280.024 313.892 280.484 313.779 280.907 313.518C281.972 312.884 282.608 311.582 282.326 310.61C282.045 309.638 280.954 309.364 279.889 309.997V309.997V309.997Z" fill="#FFB6B6"/>
<path d="M255.579 300.116L265.975 320.245L278.162 315.431L277.632 310.871L268.352 313.392L263.175 301.976C261.485 297.289 258.153 296.345 255.579 300.115V300.116V300.116Z" fill="#FFD446"/>
<path d="M330.248 401.618H325.504C324.675 401.618 324.001 400.651 324.001 399.462C323.102 395.957 322.989 392.813 324.001 390.187C324.001 388.998 324.675 388.031 325.504 388.031C326.907 386.572 328.543 387.015 330.248 388.031C331.077 388.031 331.751 388.998 331.751 390.187C331.175 393.159 331.217 396.259 331.751 399.462C331.751 400.651 331.077 401.618 330.248 401.618Z" fill="#FFD446"/>
<path d="M329.79 392.16H325.958C325.825 392.16 325.718 392.006 325.718 391.816C325.718 391.626 325.825 391.472 325.958 391.472H329.79C329.922 391.472 330.029 391.626 330.029 391.816C330.029 392.006 329.922 392.16 329.79 392.16Z" fill="white"/>
<path d="M329.79 394.907H325.958C325.825 394.907 325.718 394.753 325.718 394.564C325.718 394.374 325.825 394.22 325.958 394.22H329.79C329.922 394.22 330.029 394.374 330.029 394.564C330.029 394.753 329.922 394.907 329.79 394.907Z" fill="white"/>
<path d="M329.79 397.655H325.958C325.825 397.655 325.718 397.501 325.718 397.311C325.718 397.122 325.825 396.968 325.958 396.968H329.79C329.922 396.968 330.029 397.122 330.029 397.311C330.029 397.501 329.922 397.655 329.79 397.655Z" fill="white"/>
<path d="M413.74 414.106H230.539V414.625H413.74V414.106Z" fill="#E6E6E6"/>
<path d="M373.521 344.728C373.677 346.885 374.579 348.519 375.536 348.377C376.492 348.234 377.142 346.371 376.986 344.213C376.933 343.35 376.735 342.518 376.411 341.786L375.671 332.656L372.691 333.245L373.737 342.181C373.524 342.993 373.45 343.865 373.52 344.726L373.521 344.728V344.728Z" fill="#FFB6B6"/>
<path d="M377.906 307.723L379.141 292.163C379.141 292.163 372.981 291.405 372.534 295.368C372.087 299.331 371.063 316.854 371.063 316.854L372.65 340.235L376.608 339.907L376.117 318.454L377.906 307.723V307.723V307.723Z" fill="#2F2E41"/>
<path d="M258.921 294.091L250.599 295.178L250.354 282.771L259.42 282.402L258.921 294.091Z" fill="#2F2E41"/>
<path d="M254.713 292.426C257.125 292.426 259.08 289.621 259.08 286.161C259.08 282.701 257.125 279.897 254.713 279.897C252.301 279.897 250.345 282.701 250.345 286.161C250.345 289.621 252.301 292.426 254.713 292.426Z" fill="#FFB6B6"/>
<path d="M258.226 280.057C258.195 278.503 256.847 278.334 255.796 277.951L254.843 277.242C253.908 276.9 252.916 277.14 252.111 277.903L249.57 280.11C248.43 281.191 248.249 282.937 247.785 284.782L246.945 287.481C246.489 289.297 247.092 291.703 247.554 293.516L247.747 294.276L247.445 296.762L252.739 296.407L253.209 292.569L252.305 291.112C251.985 290.595 251.959 289.827 252.243 289.268H252.243C253.265 287.257 253.076 284.438 253.076 284.438L254.369 285.45C255.219 285.617 255.977 285.598 256.643 285.399C257.376 285.179 257.999 284.739 258.514 284.085L258.975 286.31C259.094 289.079 258.733 289.814 257.013 292.523L260.03 295.241L259.919 293.77C259.653 290.272 260.463 287.513 260.349 284.666C260.271 282.697 259.454 280.942 258.226 280.057H258.226H258.226Z" fill="#2F2E41"/>
<path d="M258.949 332.881C258.523 332.631 258.061 332.531 257.602 332.589L253.239 329.658L252.328 332.676L256.851 335.324C257.16 335.816 257.545 336.194 257.976 336.428C259.049 337.033 260.137 336.731 260.405 335.751C260.674 334.771 260.022 333.487 258.949 332.881H258.949Z" fill="#FFB6B6"/>
<path d="M246.254 301.544L243.979 326.382L255.075 335.067L256.903 331.26L249.008 323.823L250.816 310.454C251.871 305.398 249.932 301.398 246.254 301.544L246.254 301.544V301.544Z" fill="#FFD446"/>
</g>
<g clip-path="url(#clip2_159_269)">
<path d="M383.132 124.634H260.566C259.73 124.633 258.928 124.137 258.336 123.256C257.744 122.375 257.412 121.18 257.411 119.934V7.37583C257.411 6.46294 257.655 5.58772 258.089 4.94219C258.522 4.29667 259.11 3.93355 259.723 3.9325H383.935C384.559 3.93355 385.157 4.30294 385.598 4.95963C386.039 5.61632 386.287 6.50668 386.287 7.43537V119.934C386.286 121.18 385.954 122.375 385.362 123.256C384.77 124.137 383.968 124.633 383.132 124.634V124.634Z" fill="#F2F2F2"/>
<path d="M378.66 117.978H264.433C262.758 117.978 261.396 116.078 261.396 113.743V15.7258C261.396 13.9939 262.405 12.5848 263.646 12.5848H379.409C380.671 12.5848 381.697 14.0171 381.697 15.7775V113.743C381.697 116.078 380.335 117.978 378.66 117.978Z" fill="white"/>
<path d="M386.243 7.10699H257.366V4.71416C257.367 3.46394 257.702 2.26548 258.295 1.38171C258.889 0.49794 259.694 0.00103289 260.533 0H383.076C383.915 0.00102688 384.72 0.497932 385.314 1.3817C385.908 2.26547 386.242 3.46394 386.243 4.71416V7.10699Z" fill="#CCCCCC"/>
<path d="M263.122 4.78069C263.575 4.78069 263.942 4.23443 263.942 3.56057C263.942 2.88672 263.575 2.34045 263.122 2.34045C262.67 2.34045 262.303 2.88672 262.303 3.56057C262.303 4.23443 262.67 4.78069 263.122 4.78069Z" fill="white"/>
<path d="M266.232 4.78069C266.684 4.78069 267.051 4.23443 267.051 3.56057C267.051 2.88672 266.684 2.34045 266.232 2.34045C265.779 2.34045 265.413 2.88672 265.413 3.56057C265.413 4.23443 265.779 4.78069 266.232 4.78069Z" fill="white"/>
<path d="M269.342 4.78069C269.794 4.78069 270.161 4.23443 270.161 3.56057C270.161 2.88672 269.794 2.34045 269.342 2.34045C268.889 2.34045 268.522 2.88672 268.522 3.56057C268.522 4.23443 268.889 4.78069 269.342 4.78069Z" fill="white"/>
<path d="M366.088 101.539H277.566C276.679 101.538 275.828 101.012 275.201 100.078C274.573 99.143 274.22 97.876 274.219 96.5544V32.9897C274.22 32.0012 274.484 31.0536 274.953 30.3547C275.422 29.6558 276.059 29.2626 276.722 29.2615H366.891C367.566 29.2626 368.212 29.6621 368.689 30.3721C369.166 31.0822 369.434 32.045 369.435 33.0492V96.5544C369.434 97.876 369.081 99.143 368.453 100.078C367.826 101.012 366.975 101.538 366.088 101.539V101.539ZM276.722 29.8312C276.16 29.8321 275.621 30.1652 275.224 30.7573C274.826 31.3495 274.602 32.1523 274.602 32.9897V96.5544C274.603 97.7249 274.915 98.8472 275.471 99.6749C276.027 100.503 276.78 100.968 277.566 100.97H366.088C366.874 100.968 367.627 100.503 368.183 99.6749C368.739 98.8472 369.051 97.7249 369.052 96.5544V33.0492C369.051 32.196 368.824 31.3781 368.419 30.7748C368.013 30.1715 367.464 29.8321 366.891 29.8312H276.722Z" fill="#CCCCCC"/>
<path d="M280.626 96.5544H363.027C363.839 96.5544 364.617 96.0742 365.191 95.2195C365.765 94.3648 366.087 93.2055 366.087 91.9968V38.8592C366.087 37.6505 365.765 36.4912 365.191 35.6365C364.617 34.7818 363.839 34.3016 363.027 34.3016H280.626C279.814 34.3016 279.036 34.7818 278.462 35.6365C277.888 36.4912 277.566 37.6505 277.566 38.8592V91.9968C277.566 93.2055 277.888 94.3648 278.462 95.2195C279.036 96.0742 279.814 96.5544 280.626 96.5544Z" fill="#F2F2F2"/>
<path d="M289.983 49.7614C290.933 49.7614 291.704 48.6136 291.704 47.1978C291.704 45.7819 290.933 44.6342 289.983 44.6342C289.032 44.6342 288.261 45.7819 288.261 47.1978C288.261 48.6136 289.032 49.7614 289.983 49.7614Z" fill="#CCCCCC"/>
<path d="M289.983 59.4462C290.933 59.4462 291.704 58.2984 291.704 56.8826C291.704 55.4667 290.933 54.319 289.983 54.319C289.032 54.319 288.261 55.4667 288.261 56.8826C288.261 58.2984 289.032 59.4462 289.983 59.4462Z" fill="#CCCCCC"/>
<path d="M289.983 69.131C290.933 69.131 291.704 67.9833 291.704 66.5674C291.704 65.1516 290.933 64.0038 289.983 64.0038C289.032 64.0038 288.261 65.1516 288.261 66.5674C288.261 67.9833 289.032 69.131 289.983 69.131Z" fill="#CCCCCC"/>
<path d="M289.983 78.8158C290.933 78.8158 291.704 77.6681 291.704 76.2522C291.704 74.8364 290.933 73.6886 289.983 73.6886C289.032 73.6886 288.261 74.8364 288.261 76.2522C288.261 77.6681 289.032 78.8158 289.983 78.8158Z" fill="#CCCCCC"/>
<path d="M355.201 47.4827H298.589C298.538 47.4827 298.49 47.4527 298.454 47.3992C298.418 47.3458 298.398 47.2734 298.398 47.1978C298.398 47.1223 298.418 47.0498 298.454 46.9964C298.49 46.943 298.538 46.913 298.589 46.913H355.201C355.252 46.913 355.301 46.943 355.337 46.9964C355.373 47.0498 355.393 47.1223 355.393 47.1978C355.393 47.2734 355.373 47.3458 355.337 47.3992C355.301 47.4527 355.252 47.4827 355.201 47.4827Z" fill="#CCCCCC"/>
<path d="M355.201 57.1674H298.589C298.538 57.1674 298.49 57.1374 298.454 57.084C298.418 57.0306 298.398 56.9581 298.398 56.8826C298.398 56.807 298.418 56.7346 298.454 56.6812C298.49 56.6277 298.538 56.5977 298.589 56.5977H355.201C355.252 56.5977 355.301 56.6277 355.337 56.6812C355.373 56.7346 355.393 56.807 355.393 56.8826C355.393 56.9581 355.373 57.0306 355.337 57.084C355.301 57.1374 355.252 57.1674 355.201 57.1674Z" fill="#CCCCCC"/>
<path d="M355.201 66.8522H298.589C298.538 66.8522 298.49 66.8222 298.454 66.7688C298.418 66.7154 298.398 66.6429 298.398 66.5674C298.398 66.4918 298.418 66.4194 298.454 66.366C298.49 66.3125 298.538 66.2825 298.589 66.2825H355.201C355.252 66.2825 355.301 66.3125 355.337 66.366C355.373 66.4194 355.393 66.4918 355.393 66.5674C355.393 66.6429 355.373 66.7154 355.337 66.7688C355.301 66.8222 355.252 66.8522 355.201 66.8522Z" fill="#CCCCCC"/>
<path d="M355.201 76.537H298.589C298.538 76.537 298.49 76.507 298.454 76.4536C298.418 76.4002 298.398 76.3277 298.398 76.2522C298.398 76.1766 298.418 76.1042 298.454 76.0508C298.49 75.9974 298.538 75.9673 298.589 75.9673H355.201C355.252 75.9673 355.301 75.9974 355.337 76.0508C355.373 76.1042 355.393 76.1766 355.393 76.2522C355.393 76.3277 355.373 76.4002 355.337 76.4536C355.301 76.507 355.252 76.537 355.201 76.537Z" fill="#CCCCCC"/>
<path d="M309.3 86.2218H303.753C303.5 86.2214 303.257 86.0712 303.077 85.8042C302.898 85.5372 302.797 85.1752 302.797 84.7976V77.1067C302.797 76.7291 302.898 76.3671 303.077 76.1001C303.257 75.8331 303.5 75.6829 303.753 75.6825H309.3C309.553 75.6829 309.796 75.8331 309.976 76.1001C310.155 76.3671 310.256 76.7291 310.256 77.1067V84.7976C310.256 85.1752 310.155 85.5372 309.976 85.8042C309.796 86.0712 309.553 86.2214 309.3 86.2218V86.2218Z" fill="#00B0FF"/>
<path d="M321.731 86.2218H316.185C315.931 86.2214 315.688 86.0712 315.509 85.8042C315.33 85.5372 315.229 85.1752 315.229 84.7976V67.4219C315.229 67.0443 315.33 66.6823 315.509 66.4153C315.688 66.1483 315.931 65.9981 316.185 65.9977H321.731C321.985 65.9981 322.228 66.1483 322.407 66.4153C322.586 66.6823 322.687 67.0443 322.688 67.4219V84.7976C322.687 85.1752 322.586 85.5372 322.407 85.8042C322.228 86.0712 321.985 86.2214 321.731 86.2218V86.2218Z" fill="#00B0FF"/>
<path d="M334.354 86.2219H328.808C328.554 86.2214 328.311 86.0713 328.132 85.8042C327.953 85.5372 327.852 85.1752 327.852 84.7976V57.7372C327.852 57.3596 327.953 56.9976 328.132 56.7306C328.311 56.4636 328.554 56.3134 328.808 56.3129H334.354C334.608 56.3134 334.851 56.4636 335.03 56.7306C335.209 56.9976 335.31 57.3596 335.311 57.7372V84.7976C335.31 85.1752 335.209 85.5372 335.03 85.8042C334.851 86.0713 334.608 86.2214 334.354 86.2219V86.2219Z" fill="#00B0FF"/>
<path d="M347.36 86.2219H341.813C341.56 86.2214 341.317 86.0712 341.137 85.8042C340.958 85.5372 340.857 85.1752 340.857 84.7976V48.3372C340.857 47.9596 340.958 47.5976 341.137 47.3306C341.317 47.0636 341.56 46.9134 341.813 46.913H347.36C347.613 46.9134 347.856 47.0636 348.036 47.3306C348.215 47.5976 348.316 47.9596 348.316 48.3372V84.7976C348.316 85.1752 348.215 85.5372 348.036 85.8042C347.856 86.0712 347.613 86.2214 347.36 86.2219V86.2219Z" fill="#00B0FF"/>
<path d="M355.201 86.2219H298.589C298.538 86.2219 298.49 86.1918 298.454 86.1384C298.418 86.085 298.398 86.0126 298.398 85.937C298.398 85.8615 298.418 85.789 298.454 85.7356C298.49 85.6822 298.538 85.6522 298.589 85.6522H355.201C355.252 85.6522 355.301 85.6822 355.337 85.7356C355.373 85.789 355.393 85.8615 355.393 85.937C355.393 86.0126 355.373 86.085 355.337 86.1384C355.301 86.1918 355.252 86.2219 355.201 86.2219Z" fill="#3F3D56"/>
<path d="M380.074 139.359C380.229 139.01 380.433 138.715 380.673 138.497C380.913 138.278 381.182 138.14 381.461 138.092C381.74 138.045 382.023 138.089 382.29 138.223C382.556 138.356 382.8 138.574 383.004 138.863L389.077 134.195L388.7 139.454L382.99 143.081C382.642 143.558 382.188 143.829 381.715 143.842C381.242 143.854 380.782 143.608 380.422 143.149C380.063 142.691 379.829 142.051 379.764 141.353C379.7 140.654 379.81 139.945 380.074 139.359Z" fill="#FFB8B8"/>
<path d="M385.3 141.321C385.162 141.16 385.06 140.94 385.008 140.691L384.525 138.367C384.473 138.115 384.475 137.846 384.529 137.595C384.583 137.344 384.688 137.124 384.829 136.965L389.751 131.428L395.083 116.697C395.306 116.269 395.584 115.91 395.9 115.642C396.216 115.374 396.565 115.2 396.926 115.133C397.288 115.065 397.654 115.104 398.006 115.247C398.357 115.391 398.686 115.636 398.973 115.968C399.261 116.301 399.501 116.715 399.682 117.186C399.862 117.657 399.978 118.176 400.024 118.714C400.069 119.252 400.043 119.799 399.947 120.322C399.85 120.845 399.686 121.334 399.462 121.762L396.429 131.296C395.509 134.19 393.914 136.488 391.942 137.761L386.173 141.488C386.062 141.56 385.942 141.596 385.821 141.594C385.7 141.592 385.581 141.552 385.471 141.477C385.41 141.435 385.353 141.383 385.3 141.321V141.321Z" fill="#3F3D56"/>
<path d="M399.596 110.55C402.191 110.55 404.294 107.417 404.294 103.554C404.294 99.6898 402.191 96.5575 399.596 96.5575C397.002 96.5575 394.899 99.6898 394.899 103.554C394.899 107.417 397.002 110.55 399.596 110.55Z" fill="#FFB8B8"/>
<path d="M397.691 195.33L395.346 195.33L394.231 181.86L397.692 181.86L397.691 195.33Z" fill="#FFB8B8"/>
<path d="M393.671 194.332H398.193V198.573H390.824C390.824 198.016 390.897 197.464 391.04 196.95C391.184 196.435 391.393 195.968 391.658 195.574C391.922 195.18 392.236 194.868 392.581 194.655C392.927 194.442 393.297 194.332 393.671 194.332Z" fill="#2F2E41"/>
<path d="M405.341 195.331L402.997 195.33L401.881 181.86L405.342 181.861L405.341 195.331Z" fill="#FFB8B8"/>
<path d="M401.321 194.333H405.843V198.573H398.474C398.474 198.016 398.548 197.465 398.691 196.95C398.834 196.436 399.044 195.968 399.308 195.575C399.572 195.181 399.886 194.868 400.232 194.655C400.577 194.442 400.947 194.333 401.321 194.333V194.333Z" fill="#2F2E41"/>
<path d="M405.512 191.913L402.765 191.913C402.575 191.912 402.392 191.819 402.241 191.648C402.091 191.476 401.983 191.236 401.934 190.964L397.979 169.116C397.972 169.082 397.958 169.053 397.938 169.034C397.918 169.014 397.894 169.007 397.871 169.013C397.847 169.018 397.826 169.037 397.812 169.064C397.797 169.092 397.789 169.127 397.791 169.162L398.59 189.882C398.597 190.065 398.577 190.249 398.533 190.42C398.488 190.591 398.419 190.746 398.331 190.874C398.243 191.002 398.137 191.1 398.021 191.162C397.905 191.224 397.782 191.248 397.659 191.233L394.571 190.849C394.373 190.824 394.187 190.698 394.044 190.492C393.901 190.287 393.811 190.014 393.787 189.72L390.974 146.211L392.062 147.184L402.262 144.605L406.366 190.462C406.382 190.643 406.372 190.827 406.336 191.002C406.301 191.176 406.241 191.338 406.16 191.475C406.079 191.613 405.98 191.723 405.868 191.798C405.756 191.874 405.635 191.913 405.512 191.913H405.512Z" fill="#2F2E41"/>
<path d="M394.385 150.804C393.26 150.79 392.157 150.328 391.193 149.465C391.044 149.334 390.925 149.139 390.853 148.906C390.78 148.673 390.756 148.412 390.784 148.158C391.143 144.886 393.019 128.103 394.725 118.953C395.421 115.226 396.958 113.219 399.294 112.987C402.711 112.654 405.749 116.635 406.065 121.875C406.623 131.117 404.357 144.249 403.356 149.466C403.318 149.668 403.246 149.852 403.148 150.003C403.051 150.154 402.93 150.267 402.796 150.331C402.662 150.396 402.519 150.411 402.381 150.375C402.242 150.339 402.112 150.252 402.001 150.123L399.962 147.761C399.836 147.618 399.681 147.545 399.523 147.555C399.366 147.565 399.215 147.657 399.098 147.815C397.379 150.098 395.747 150.804 394.385 150.804Z" fill="#3F3D56"/>
<path opacity="0.2" d="M401.128 126.397L402.85 137.222L400.363 146.337L402.084 137.507L401.128 126.397Z" fill="black"/>
<path d="M402.277 109.307C402.694 109.318 403.11 109.207 403.498 108.978C403.669 108.88 403.847 108.799 404.018 108.701C405.525 107.833 406.518 105.443 406.554 103.036C406.589 100.63 405.753 98.2945 404.51 96.7553C403.268 95.2161 401.659 94.4258 400.048 94.243C398.312 94.046 396.357 94.7015 395.387 96.8542C395.129 97.4272 394.949 98.1225 395.102 98.8144C395.147 99.0232 395.229 99.2104 395.339 99.3573C395.772 99.9313 396.204 99.4998 396.645 99.4617C397.252 99.4093 397.797 100.141 397.993 100.998C398.189 101.855 398.103 102.799 397.945 103.673C397.824 104.199 397.748 104.745 397.718 105.299C397.706 105.577 397.741 105.855 397.82 106.107C397.9 106.359 398.021 106.577 398.173 106.739C398.553 107.081 399.051 106.883 399.43 106.542C399.81 106.202 400.137 105.728 400.547 105.477C400.957 105.226 401.508 105.282 401.747 105.838C401.822 106.04 401.874 106.261 401.898 106.49C402.112 107.941 402.063 107.856 402.277 109.307V109.307Z" fill="#2F2E41"/>
<path d="M394.996 185.558L365.581 170.302C365.077 170.039 364.662 169.489 364.43 168.772C364.197 168.055 364.165 167.23 364.34 166.478L371.984 133.789C372.113 133.238 372.384 132.786 372.736 132.532C373.089 132.278 373.495 132.243 373.865 132.435L404.274 148.207C404.65 148.403 404.959 148.813 405.132 149.347C405.306 149.881 405.33 150.496 405.199 151.057L397.564 183.71C397.387 184.462 397.018 185.078 396.537 185.425C396.055 185.771 395.501 185.819 394.996 185.558V185.558Z" fill="#E6E6E6"/>
<path d="M368.091 168.423L393.812 181.764C394.302 182.018 394.84 181.972 395.307 181.636C395.773 181.3 396.132 180.701 396.302 179.971L402.474 153.576C402.645 152.846 402.614 152.046 402.388 151.35C402.163 150.655 401.761 150.121 401.271 149.867L375.55 136.526C375.06 136.272 374.523 136.319 374.056 136.655C373.589 136.991 373.23 137.59 373.06 138.319L366.888 164.715C366.803 165.076 366.767 165.458 366.782 165.84C366.797 166.222 366.862 166.596 366.974 166.94C367.085 167.285 367.242 167.593 367.433 167.847C367.625 168.102 367.849 168.297 368.091 168.423Z" fill="white"/>
<path d="M374.55 149.878L373.276 149.217C373.207 149.181 373.151 149.106 373.119 149.008C373.087 148.91 373.083 148.797 373.107 148.694L373.55 146.797C373.574 146.694 373.625 146.609 373.691 146.562C373.757 146.515 373.832 146.508 373.901 146.544L375.175 147.204C375.244 147.24 375.301 147.316 375.333 147.414C375.365 147.512 375.369 147.625 375.345 147.728L374.902 149.625C374.877 149.728 374.827 149.812 374.761 149.86C374.695 149.907 374.619 149.913 374.55 149.878V149.878Z" fill="#00B0FF"/>
<path d="M373.401 154.793L372.127 154.132C372.058 154.097 372.001 154.021 371.969 153.923C371.938 153.825 371.933 153.712 371.957 153.609L372.401 151.712C372.425 151.609 372.475 151.525 372.541 151.477C372.607 151.43 372.683 151.423 372.752 151.459L374.026 152.12C374.095 152.156 374.152 152.231 374.183 152.329C374.215 152.427 374.22 152.54 374.196 152.643L373.752 154.54C373.728 154.643 373.677 154.727 373.612 154.775C373.546 154.822 373.47 154.829 373.401 154.793V154.793Z" fill="#3F3D56"/>
<path d="M372.251 159.709L370.978 159.048C370.909 159.012 370.852 158.937 370.82 158.839C370.788 158.74 370.784 158.628 370.808 158.525L371.251 156.627C371.276 156.525 371.326 156.44 371.392 156.393C371.458 156.345 371.534 156.339 371.603 156.375L372.876 157.035C372.946 157.071 373.002 157.146 373.034 157.245C373.066 157.343 373.07 157.456 373.046 157.558L372.603 159.456C372.579 159.558 372.528 159.643 372.462 159.69C372.396 159.738 372.32 159.744 372.251 159.709V159.709Z" fill="#CCCCCC"/>
<path d="M383.11 153.254L376.972 150.07C376.938 150.053 376.906 150.025 376.879 149.989C376.852 149.954 376.83 149.91 376.814 149.861C376.798 149.813 376.789 149.76 376.787 149.706C376.784 149.652 376.79 149.598 376.801 149.547C376.813 149.496 376.832 149.449 376.856 149.408C376.88 149.368 376.91 149.335 376.942 149.312C376.975 149.288 377.01 149.275 377.047 149.272C377.083 149.269 377.119 149.276 377.153 149.294L383.291 152.478C383.325 152.495 383.357 152.523 383.384 152.559C383.411 152.595 383.433 152.638 383.449 152.687C383.465 152.735 383.474 152.788 383.476 152.842C383.478 152.896 383.473 152.95 383.461 153.001C383.45 153.052 383.431 153.099 383.407 153.14C383.383 153.18 383.353 153.213 383.321 153.236C383.288 153.26 383.253 153.273 383.216 153.276C383.18 153.279 383.144 153.272 383.11 153.254V153.254Z" fill="#CCCCCC"/>
<path d="M381.96 158.169L375.823 154.986C375.754 154.95 375.697 154.875 375.665 154.777C375.633 154.678 375.629 154.566 375.653 154.463C375.677 154.36 375.728 154.275 375.794 154.228C375.859 154.18 375.935 154.174 376.004 154.21L382.142 157.393C382.176 157.411 382.208 157.438 382.235 157.474C382.262 157.51 382.284 157.554 382.3 157.602C382.316 157.651 382.325 157.704 382.327 157.758C382.329 157.811 382.324 157.866 382.312 157.917C382.3 157.968 382.282 158.015 382.258 158.055C382.233 158.095 382.204 158.128 382.172 158.152C382.139 158.175 382.103 158.189 382.067 158.192C382.031 158.195 381.995 158.187 381.96 158.169V158.169Z" fill="#CCCCCC"/>
<path d="M380.811 163.085L374.673 159.901C374.604 159.865 374.548 159.79 374.516 159.692C374.484 159.594 374.48 159.481 374.504 159.378C374.528 159.275 374.578 159.191 374.644 159.143C374.71 159.096 374.786 159.089 374.855 159.125L380.992 162.308C381.062 162.344 381.118 162.42 381.15 162.518C381.182 162.616 381.186 162.729 381.162 162.832C381.138 162.935 381.088 163.019 381.022 163.066C380.956 163.114 380.88 163.12 380.811 163.085V163.085Z" fill="#CCCCCC"/>
<path d="M397.144 165.748C397.189 165.588 397.231 165.426 397.27 165.26C397.774 163.103 397.683 160.735 397.015 158.679C396.348 156.622 395.159 155.044 393.71 154.293L391.693 162.92L397.144 165.748Z" fill="#00B0FF"/>
<path d="M391.106 163.445L393.123 154.818C392.057 154.265 390.906 154.189 389.811 154.599C388.716 155.009 387.726 155.887 386.962 157.125C386.198 158.363 385.694 159.907 385.513 161.567C385.331 163.226 385.48 164.928 385.94 166.464C386.4 167.999 387.152 169.3 388.103 170.206C389.054 171.113 390.162 171.585 391.291 171.565C392.42 171.544 393.52 171.032 394.456 170.092C395.391 169.152 396.122 167.824 396.557 166.273L391.106 163.445Z" fill="#3F3D56"/>
<path d="M398.328 151.069C398.305 150.652 398.344 150.232 398.442 149.84C398.54 149.447 398.694 149.091 398.895 148.797C399.095 148.503 399.336 148.278 399.601 148.138C399.866 147.998 400.148 147.946 400.428 147.986L403.273 138.73L405.155 143.216L402.165 151.317C402.089 152.013 401.844 152.643 401.477 153.088C401.11 153.533 400.646 153.762 400.173 153.731C399.7 153.701 399.251 153.413 398.911 152.922C398.571 152.432 398.363 151.773 398.328 151.069V151.069Z" fill="#FFB8B8"/>
<path d="M403.253 147.81C403.078 147.81 402.907 147.731 402.762 147.582L401.419 146.197C401.274 146.047 401.163 145.834 401.102 145.586C401.041 145.339 401.032 145.07 401.077 144.815L402.656 135.934L400.748 119.443C400.745 118.9 400.815 118.362 400.953 117.86C401.09 117.357 401.293 116.9 401.549 116.514C401.805 116.128 402.11 115.822 402.446 115.611C402.782 115.401 403.142 115.291 403.507 115.289C403.871 115.286 404.232 115.391 404.57 115.596C404.907 115.801 405.214 116.104 405.472 116.486C405.731 116.868 405.937 117.322 406.077 117.823C406.218 118.323 406.291 118.86 406.293 119.403L407.857 129.693C408.332 132.816 408.029 136.089 407.004 138.904L404.009 147.139C403.952 147.297 403.872 147.435 403.776 147.545C403.68 147.655 403.57 147.733 403.452 147.775C403.387 147.798 403.32 147.81 403.253 147.81V147.81Z" fill="#3F3D56"/>
<path d="M417.809 198.732H381.47C381.419 198.732 381.37 198.702 381.334 198.649C381.298 198.596 381.278 198.523 381.278 198.448C381.278 198.372 381.298 198.3 381.334 198.246C381.37 198.193 381.419 198.163 381.47 198.163H417.809C417.859 198.163 417.908 198.193 417.944 198.246C417.98 198.3 418 198.372 418 198.448C418 198.523 417.98 198.596 417.944 198.649C417.908 198.702 417.859 198.732 417.809 198.732Z" fill="#CCCCCC"/>
<path d="M321.518 195.188L323.863 195.188L324.979 181.719H321.518L321.518 195.188Z" fill="#A0616A"/>
<path d="M320.92 194.048L325.538 194.048H325.538C325.925 194.048 326.307 194.161 326.664 194.381C327.021 194.602 327.346 194.925 327.619 195.332C327.892 195.739 328.109 196.222 328.257 196.753C328.405 197.285 328.481 197.855 328.481 198.431V198.573L320.921 198.573L320.92 194.048Z" fill="#2F2E41"/>
<path d="M312.147 195.188L314.492 195.188L315.607 181.719H312.146L312.147 195.188Z" fill="#A0616A"/>
<path d="M311.549 194.048L316.167 194.048H316.167C316.553 194.048 316.936 194.161 317.293 194.381C317.65 194.602 317.974 194.925 318.248 195.332C318.521 195.739 318.738 196.222 318.885 196.753C319.033 197.285 319.109 197.855 319.109 198.431V198.573L311.549 198.573L311.549 194.048Z" fill="#2F2E41"/>
<path d="M321.987 101.935C324.581 101.935 326.684 98.8025 326.684 94.9386C326.684 91.0748 324.581 87.9425 321.987 87.9425C319.392 87.9425 317.289 91.0748 317.289 94.9386C317.289 98.8025 319.392 101.935 321.987 101.935Z" fill="#A0616A"/>
<path d="M325.145 192.281H320.794C320.68 192.281 320.567 192.247 320.462 192.182C320.357 192.117 320.262 192.021 320.182 191.9C320.102 191.779 320.039 191.636 319.996 191.479C319.953 191.322 319.932 191.153 319.933 190.984L320.186 160.211C320.187 160.102 320.16 159.996 320.11 159.916C320.06 159.836 319.992 159.787 319.919 159.78C319.845 159.772 319.773 159.807 319.716 159.877C319.66 159.947 319.623 160.046 319.615 160.154L317.082 191.154C317.057 191.465 316.956 191.751 316.798 191.959C316.641 192.166 316.438 192.281 316.228 192.281H311.835C311.716 192.281 311.599 192.245 311.49 192.174C311.381 192.103 311.283 192 311.203 191.87C311.122 191.74 311.061 191.587 311.022 191.42C310.983 191.253 310.967 191.076 310.977 190.899L313.878 135.618L313.957 135.605L327.847 133.371L326.005 191.06C325.995 191.389 325.9 191.7 325.739 191.927C325.579 192.155 325.366 192.282 325.145 192.281V192.281Z" fill="#2F2E41"/>
<path d="M314.047 139.011C313.824 139.011 313.61 138.881 313.45 138.649C313.29 138.417 313.196 138.102 313.189 137.77C313.114 134.274 312.984 122.18 314.494 113.3C314.906 110.874 315.832 108.711 317.134 107.129C318.435 105.547 320.044 104.631 321.722 104.516V104.516C323.374 104.381 325.013 105.025 326.405 106.356C327.797 107.686 328.873 109.636 329.48 111.928C332.019 121.529 334.417 133.362 331.427 135.218C327.507 137.65 317.174 138.735 314.1 139.009C314.082 139.011 314.065 139.011 314.047 139.011Z" fill="#3F3D56"/>
<path d="M332 87.8676C332.074 87.9806 332.154 88.0847 332.239 88.179L331.745 102.286L329.694 103.85L330.875 108.769L334.686 106.526C334.994 106.345 335.254 106.02 335.428 105.599C335.601 105.179 335.678 104.687 335.647 104.196L334.649 88.1931C334.976 87.83 335.22 87.3274 335.351 86.752C335.481 86.1766 335.491 85.5558 335.378 84.9722C335.266 84.3885 335.037 83.8697 334.721 83.4846C334.406 83.0996 334.02 82.8666 333.613 82.8166C333.207 82.7667 332.8 82.9022 332.447 83.2051C332.094 83.508 331.81 83.9639 331.635 84.5122C331.46 85.0605 331.401 85.6753 331.467 86.2747C331.532 86.874 331.718 87.4297 332 87.8676V87.8676Z" fill="#A0616A"/>
<path d="M331.785 102.812L333.228 108.918C333.269 109.092 333.284 109.277 333.273 109.46C333.262 109.644 333.224 109.822 333.162 109.981C333.101 110.141 333.017 110.279 332.916 110.386C332.816 110.494 332.701 110.567 332.579 110.602L328.325 111.829C327.727 112.137 327.071 112.079 326.502 111.668C325.932 111.257 325.495 110.527 325.287 109.637C325.079 108.747 325.116 107.77 325.39 106.921C325.665 106.071 326.154 105.419 326.751 105.106L330.571 102.103C330.681 102.017 330.801 101.967 330.925 101.957C331.048 101.947 331.172 101.976 331.287 102.044C331.402 102.111 331.506 102.214 331.592 102.347C331.678 102.479 331.744 102.638 331.785 102.812V102.812Z" fill="#3F3D56"/>
<path d="M311.653 87.8676C311.579 87.9806 311.5 88.0847 311.415 88.179L311.908 102.286L313.959 103.85L312.779 108.769L308.967 106.526C308.659 106.345 308.399 106.02 308.226 105.599C308.053 105.179 307.975 104.687 308.006 104.196L309.005 88.1931C308.678 87.83 308.433 87.3274 308.303 86.752C308.173 86.1766 308.163 85.5558 308.275 84.9722C308.388 84.3885 308.617 83.8697 308.932 83.4846C309.247 83.0996 309.634 82.8666 310.04 82.8166C310.446 82.7667 310.853 82.9022 311.207 83.2051C311.56 83.508 311.843 83.9639 312.018 84.5122C312.193 85.0605 312.252 85.6753 312.187 86.2747C312.122 86.874 311.936 87.4297 311.653 87.8676H311.653Z" fill="#A0616A"/>
<path d="M312.367 102.044C312.482 101.976 312.606 101.947 312.729 101.957C312.853 101.967 312.973 102.017 313.083 102.103L316.903 105.106C317.5 105.419 317.989 106.071 318.264 106.921C318.538 107.77 318.575 108.747 318.367 109.637C318.159 110.527 317.722 111.257 317.152 111.668C316.583 112.079 315.927 112.137 315.329 111.829L311.074 110.602C310.953 110.567 310.838 110.494 310.737 110.386C310.637 110.279 310.553 110.141 310.491 109.981C310.43 109.822 310.392 109.644 310.381 109.46C310.37 109.277 310.385 109.092 310.426 108.918L311.869 102.812C311.91 102.638 311.976 102.479 312.062 102.347C312.148 102.214 312.252 102.111 312.367 102.044V102.044Z" fill="#3F3D56"/>
<path d="M323.811 96.1312C323.786 95.2388 323.937 94.3549 324.244 93.5877C324.551 92.8204 325.001 92.203 325.54 91.8107C326.968 90.7129 327.865 88.3712 327.472 86.2328C326.969 83.4958 324.467 81.7206 322.441 82.6623C321.892 82.9523 321.363 83.3185 320.861 83.756L319.537 84.813C318.971 85.2347 318.426 85.7142 317.905 86.248C317.124 87.1048 316.512 88.2581 316.133 89.5875C315.754 90.9168 315.621 92.3734 315.749 93.805C316.01 96.5876 317.233 99.1395 318.908 100.887C319.549 101.6 320.288 102.089 321.073 102.32C321.876 102.517 322.769 102.293 323.356 101.549C324.274 100.387 324.179 98.4414 323.882 96.8161C323.843 96.592 323.819 96.3625 323.811 96.1312Z" fill="#2F2E41"/>
<path d="M339.776 198.732H303.437C303.386 198.732 303.337 198.702 303.302 198.649C303.266 198.596 303.246 198.523 303.246 198.448C303.246 198.372 303.266 198.3 303.302 198.246C303.337 198.193 303.386 198.163 303.437 198.163H339.776C339.827 198.163 339.875 198.193 339.911 198.246C339.947 198.3 339.967 198.372 339.967 198.448C339.967 198.523 339.947 198.596 339.911 198.649C339.875 198.702 339.827 198.732 339.776 198.732Z" fill="#CCCCCC"/>
<path d="M280.469 146.768L250.484 165.089C249.969 165.403 249.391 165.399 248.878 165.08C248.365 164.76 247.958 164.15 247.746 163.384L238.567 130.062C238.413 129.5 238.415 128.87 238.572 128.31C238.729 127.75 239.029 127.305 239.406 127.074L270.404 108.134C270.788 107.901 271.219 107.903 271.601 108.141C271.984 108.38 272.287 108.834 272.445 109.405L281.614 142.691C281.824 143.458 281.822 144.318 281.607 145.082C281.393 145.847 280.983 146.453 280.469 146.768V146.768Z" fill="#E6E6E6"/>
<path d="M251.57 161.047L277.79 145.027C278.289 144.722 278.686 144.134 278.895 143.393C279.103 142.651 279.105 141.817 278.9 141.073L271.488 114.166C271.387 113.798 271.238 113.463 271.049 113.18C270.861 112.898 270.637 112.674 270.391 112.52C270.144 112.366 269.88 112.287 269.612 112.285C269.345 112.284 269.08 112.361 268.833 112.512L242.614 128.532C242.366 128.683 242.142 128.905 241.952 129.186C241.762 129.466 241.612 129.8 241.509 130.167C241.406 130.534 241.352 130.928 241.351 131.326C241.35 131.724 241.402 132.118 241.503 132.486L248.915 159.394C249.017 159.762 249.166 160.097 249.354 160.379C249.542 160.662 249.766 160.886 250.013 161.04C250.259 161.193 250.524 161.273 250.791 161.274C251.058 161.275 251.323 161.198 251.57 161.047V161.047Z" fill="white"/>
<path d="M271.343 121.504L270.958 121.739L270.984 121.835L271.369 121.6L271.343 121.504Z" fill="#E6E6E6"/>
<path d="M270.205 122.311L269.427 122.787L269.4 122.691L270.179 122.215L270.205 122.311ZM268.648 123.262L267.869 123.738L267.843 123.643L268.621 123.167L268.648 123.262ZM267.09 124.214L266.312 124.69L266.285 124.594L267.064 124.118L267.09 124.214ZM265.533 125.166L264.754 125.642L264.728 125.546L265.506 125.07L265.533 125.166ZM263.975 126.117L263.197 126.593L263.17 126.497L263.949 126.022L263.975 126.117ZM262.418 127.069L261.639 127.545L261.613 127.449L262.391 126.973L262.418 127.069ZM260.86 128.021L260.082 128.496L260.055 128.401L260.834 127.925L260.86 128.021ZM259.303 128.972L258.524 129.448L258.498 129.352L259.276 128.877L259.303 128.972ZM257.745 129.924L256.967 130.4L256.94 130.304L257.719 129.828L257.745 129.924ZM256.188 130.876L255.409 131.351L255.383 131.256L256.161 130.78L256.188 130.876ZM254.63 131.827L253.852 132.303L253.825 132.207L254.604 131.731L254.63 131.827ZM253.073 132.779L252.294 133.255L252.268 133.159L253.046 132.683L253.073 132.779ZM251.515 133.73L250.736 134.206L250.71 134.111L251.489 133.635L251.515 133.73ZM249.958 134.682L249.179 135.158L249.153 135.062L249.931 134.586L249.958 134.682ZM248.4 135.634L247.621 136.11L247.595 136.014L248.374 135.538L248.4 135.634ZM246.843 136.585L246.064 137.061L246.038 136.965L246.816 136.49L246.843 136.585Z" fill="#E6E6E6"/>
<path d="M245.259 137.441L244.873 137.677L244.899 137.773L245.285 137.537L245.259 137.441Z" fill="#E6E6E6"/>
<path d="M261.138 138.136L260.752 138.371L260.778 138.467L261.164 138.232L261.138 138.136Z" fill="#E6E6E6"/>
<path d="M260.011 138.936L259.244 139.405L259.218 139.309L259.985 138.84L260.011 138.936ZM258.477 139.873L257.71 140.342L257.683 140.246L258.45 139.778L258.477 139.873ZM256.942 140.811L256.175 141.28L256.149 141.184L256.916 140.715L256.942 140.811ZM255.408 141.748L254.641 142.217L254.615 142.121L255.382 141.653L255.408 141.748ZM253.874 142.686L253.107 143.155L253.08 143.059L253.847 142.59L253.874 142.686ZM252.339 143.623L251.572 144.092L251.546 143.996L252.313 143.528L252.339 143.623ZM250.805 144.561L250.038 145.03L250.011 144.934L250.779 144.465L250.805 144.561ZM249.271 145.498L248.503 145.967L248.477 145.871L249.244 145.403L249.271 145.498Z" fill="#E6E6E6"/>
<path d="M247.71 146.34L247.324 146.576L247.351 146.671L247.736 146.436L247.71 146.34Z" fill="#E6E6E6"/>
<path d="M254.781 146.939L254.395 147.174L254.421 147.27L254.807 147.034L254.781 146.939Z" fill="#E6E6E6"/>
<path d="M253.632 147.752L252.843 148.235L252.816 148.139L253.606 147.657L253.632 147.752ZM252.053 148.717L251.264 149.199L251.238 149.103L252.027 148.621L252.053 148.717ZM250.475 149.681L249.686 150.164L249.659 150.068L250.448 149.586L250.475 149.681Z" fill="#E6E6E6"/>
<path d="M248.87 150.55L248.484 150.786L248.511 150.882L248.896 150.646L248.87 150.55Z" fill="#E6E6E6"/>
<path d="M256.76 154.123L256.374 154.359L256.4 154.455L256.786 154.219L256.76 154.123Z" fill="#E6E6E6"/>
<path d="M255.611 154.937L254.822 155.419L254.795 155.324L255.585 154.841L255.611 154.937ZM254.032 155.902L253.243 156.384L253.217 156.288L254.006 155.806L254.032 155.902ZM252.454 156.866L251.665 157.348L251.638 157.253L252.428 156.77L252.454 156.866Z" fill="#E6E6E6"/>
<path d="M250.849 157.735L250.463 157.971L250.49 158.066L250.875 157.831L250.849 157.735Z" fill="#E6E6E6"/>
<path d="M252.683 156.812L274.902 143.236C275.44 142.906 275.868 142.272 276.093 141.473C276.317 140.674 276.319 139.775 276.099 138.974L271.61 122.676L271.566 122.705L266.114 142.122L262.07 139.604C261.995 139.557 261.914 139.537 261.833 139.544C261.753 139.552 261.674 139.587 261.604 139.647C261.499 139.742 261.417 139.885 261.372 140.055L258.515 150.23L255.558 148.39C255.494 148.35 255.425 148.329 255.356 148.329C255.287 148.329 255.219 148.348 255.155 148.388C255.091 148.427 255.032 148.484 254.983 148.557C254.934 148.629 254.895 148.716 254.869 148.811C254.85 148.88 253.027 155.542 252.683 156.812Z" fill="#00B0FF"/>
<path d="M252.615 156.965L252.551 156.925L254.837 148.782C254.898 148.568 255.013 148.397 255.158 148.309C255.303 148.22 255.465 148.221 255.609 148.311L258.508 150.116L261.349 139.997C261.41 139.782 261.525 139.611 261.67 139.523C261.815 139.434 261.977 139.435 262.122 139.525L266.107 142.007L271.588 122.489L271.652 122.528L266.144 142.143L262.095 139.62C262.032 139.581 261.964 139.561 261.896 139.56C261.827 139.56 261.759 139.58 261.696 139.618C261.633 139.657 261.575 139.714 261.527 139.786C261.478 139.857 261.44 139.943 261.413 140.037L258.545 150.251L255.583 148.406C255.455 148.327 255.312 148.326 255.184 148.404C255.056 148.482 254.955 148.633 254.901 148.822L252.615 156.965Z" fill="#3F3D56"/>
<path d="M254.794 147.711C255.062 147.711 255.28 147.386 255.28 146.987C255.28 146.587 255.062 146.263 254.794 146.263C254.525 146.263 254.308 146.587 254.308 146.987C254.308 147.386 254.525 147.711 254.794 147.711Z" fill="#3F3D56"/>
<path d="M261.151 138.908C261.419 138.908 261.637 138.583 261.637 138.184C261.637 137.784 261.419 137.46 261.151 137.46C260.882 137.46 260.665 137.784 260.665 138.184C260.665 138.583 260.882 138.908 261.151 138.908Z" fill="#3F3D56"/>
<path d="M271.05 122.25C271.318 122.25 271.536 121.926 271.536 121.526C271.536 121.126 271.318 120.802 271.05 120.802C270.781 120.802 270.563 121.126 270.563 121.526C270.563 121.926 270.781 122.25 271.05 122.25Z" fill="#3F3D56"/>
<path d="M243.841 146.165C244.094 145.978 244.316 145.71 244.492 145.381C244.667 145.052 244.793 144.67 244.859 144.261C244.924 143.853 244.929 143.427 244.873 143.015C244.816 142.603 244.7 142.215 244.532 141.877L245.975 120.854H242.855L241.708 141.382C241.346 141.841 241.109 142.481 241.043 143.182C240.977 143.883 241.085 144.595 241.348 145.185C241.611 145.774 242.01 146.2 242.47 146.38C242.929 146.561 243.417 146.485 243.841 146.165Z" fill="#FFB8B8"/>
<path d="M246.706 109.252C249.144 109.252 251.12 106.309 251.12 102.678C251.12 99.0472 249.144 96.1038 246.706 96.1038C244.268 96.1038 242.292 99.0472 242.292 102.678C242.292 106.309 244.268 109.252 246.706 109.252Z" fill="#FFB8B8"/>
<path d="M247.537 133.098C247.36 133.098 247.188 133.011 247.048 132.852C246.907 132.692 246.806 132.468 246.759 132.215C246.405 130.301 245.485 127.065 244.024 122.597C243.694 121.587 243.512 120.485 243.488 119.362C243.465 118.24 243.601 117.123 243.888 116.084C244.175 115.046 244.606 114.109 245.153 113.336C245.7 112.563 246.35 111.971 247.062 111.599C247.736 111.244 248.451 111.094 249.164 111.159C249.878 111.223 250.576 111.5 251.216 111.973C251.857 112.446 252.427 113.105 252.894 113.912C253.36 114.719 253.713 115.657 253.932 116.671C255.064 121.959 255.01 127.623 254.934 129.812C254.924 130.076 254.857 130.328 254.742 130.529C254.627 130.73 254.472 130.87 254.298 130.927L247.71 133.07C247.653 133.088 247.595 133.098 247.537 133.098Z" fill="#FF6584"/>
<path d="M253.917 195.526H256.12L257.168 182.868L253.917 182.869L253.917 195.526Z" fill="#FFB8B8"/>
<path d="M260.37 198.573L253.445 198.573L253.445 194.589L257.694 194.588C258.045 194.588 258.393 194.691 258.718 194.892C259.042 195.092 259.337 195.385 259.586 195.755C259.834 196.125 260.031 196.565 260.166 197.048C260.3 197.532 260.37 198.05 260.37 198.573Z" fill="#2F2E41"/>
<path d="M231.884 191.273L233.815 192.854L238.828 182.515L235.978 180.181L231.884 191.273Z" fill="#FFB8B8"/>
<path d="M236.553 198.573L230.484 193.605L231.773 190.113L235.497 193.162C236.119 193.671 236.58 194.527 236.777 195.542C236.975 196.557 236.895 197.647 236.553 198.573V198.573V198.573Z" fill="#2F2E41"/>
<path d="M253.814 188.501C253.618 188.5 253.428 188.394 253.281 188.201C253.133 188.008 253.038 187.741 253.013 187.451L250.257 155.826C250.245 155.686 250.203 155.556 250.138 155.453C250.073 155.351 249.988 155.281 249.895 155.255C249.802 155.228 249.706 155.247 249.62 155.307C249.534 155.367 249.464 155.466 249.418 155.589L237.934 186.62C237.839 186.874 237.686 187.068 237.504 187.168C237.321 187.268 237.12 187.267 236.938 187.165L234.434 185.745C234.334 185.687 234.242 185.601 234.164 185.49C234.086 185.379 234.024 185.246 233.981 185.099C233.938 184.952 233.915 184.794 233.914 184.633C233.912 184.473 233.933 184.313 233.973 184.165L241.929 155.059C241.949 154.985 241.962 154.908 241.969 154.828C243.047 142.408 245.788 136.091 246.603 134.451C246.662 134.331 246.702 134.191 246.717 134.043C246.733 133.895 246.724 133.744 246.692 133.602L246.58 133.102C246.535 132.903 246.526 132.69 246.553 132.485C246.581 132.28 246.644 132.088 246.736 131.93C249.671 126.951 254.787 129.668 254.838 129.696L254.864 129.71L254.88 129.743C260.616 141.459 258.495 179.515 258.012 187.024C257.994 187.307 257.909 187.57 257.773 187.769C257.637 187.967 257.459 188.087 257.269 188.108L253.877 188.497C253.856 188.5 253.835 188.501 253.814 188.501Z" fill="#2F2E41"/>
<path d="M263.867 110.315C263.845 110.459 263.83 110.606 263.824 110.754L256.103 117.387L254.227 115.778L252.226 119.679L255.362 123.008C255.616 123.277 255.921 123.416 256.232 123.405C256.543 123.394 256.843 123.233 257.087 122.946L265.049 113.592C265.408 113.79 265.799 113.82 266.17 113.679C266.542 113.538 266.875 113.232 267.127 112.801C267.378 112.371 267.536 111.837 267.578 111.269C267.621 110.702 267.547 110.13 267.365 109.627C267.184 109.124 266.904 108.716 266.563 108.456C266.222 108.196 265.836 108.096 265.457 108.171C265.077 108.246 264.721 108.491 264.437 108.874C264.153 109.257 263.954 109.759 263.867 110.315V110.315Z" fill="#FFB8B8"/>
<path d="M255.845 117.702L253.35 122.518C253.279 122.655 253.189 122.768 253.086 122.848C252.983 122.929 252.87 122.975 252.754 122.985C252.638 122.994 252.522 122.966 252.414 122.903C252.306 122.84 252.208 122.742 252.127 122.618L249.302 118.249C248.834 117.704 248.529 116.904 248.456 116.026C248.382 115.147 248.546 114.26 248.91 113.561C249.275 112.861 249.811 112.406 250.401 112.294C250.991 112.182 251.586 112.423 252.057 112.964L255.6 115.915C255.701 115.999 255.789 116.115 255.858 116.255C255.926 116.395 255.974 116.555 255.997 116.724C256.021 116.894 256.019 117.069 255.993 117.238C255.967 117.406 255.916 117.564 255.845 117.702V117.702Z" fill="#FF6584"/>
<path d="M246.174 126.07L242.154 124.989C242.04 124.958 241.931 124.891 241.836 124.792C241.741 124.693 241.661 124.565 241.602 124.415C241.542 124.266 241.506 124.1 241.494 123.928C241.482 123.756 241.495 123.582 241.532 123.418L242.835 117.672C242.944 116.801 243.28 116.03 243.77 115.528C244.26 115.026 244.864 114.834 245.449 114.994C246.033 115.154 246.552 115.653 246.89 116.381C247.228 117.11 247.359 118.008 247.253 118.88L247.126 124.922C247.122 125.095 247.094 125.265 247.042 125.42C246.99 125.575 246.917 125.712 246.826 125.821C246.736 125.929 246.631 126.008 246.518 126.051C246.406 126.094 246.288 126.1 246.174 126.07H246.174Z" fill="#FF6584"/>
<path d="M247.405 101.166C248.539 102.322 250.029 103.511 251.188 102.28C251.55 101.869 251.813 101.294 251.938 100.641C252.063 99.9885 252.042 99.2933 251.88 98.6595C251.325 96.2963 249.8 95.2559 248.343 94.4585C246.447 93.4218 244.384 92.597 242.428 93.3395C240.471 94.0819 238.742 96.903 239.095 99.8634C239.379 102.244 240.887 104.225 240.673 106.622C240.458 109.034 238.636 110.304 237.028 110.735C235.42 111.166 233.62 111.305 232.465 113.025C230.99 115.22 231.359 119.142 232.746 121.459C234.133 123.776 236.227 124.827 238.255 125.541C240.943 126.487 243.85 126.984 246.402 125.414C248.955 123.844 250.942 119.618 250.202 115.655C249.89 113.981 249.154 112.566 248.443 111.189C247.732 109.811 247.012 108.371 246.74 106.681C246.514 105.273 246.682 103.638 247.309 102.582C247.423 102.397 247.494 102.163 247.514 101.914C247.533 101.664 247.498 101.412 247.415 101.194L247.405 101.166Z" fill="#2F2E41"/>
<path d="M264.229 198.732H227.89C227.839 198.732 227.791 198.702 227.755 198.649C227.719 198.596 227.699 198.523 227.699 198.448C227.699 198.372 227.719 198.3 227.755 198.246C227.791 198.193 227.839 198.163 227.89 198.163H264.229C264.28 198.163 264.328 198.193 264.364 198.246C264.4 198.3 264.42 198.372 264.42 198.448C264.42 198.523 264.4 198.596 264.364 198.649C264.328 198.702 264.28 198.732 264.229 198.732Z" fill="#CCCCCC"/>
</g>
<defs>
<clipPath id="clip0_159_269">
<rect width="222" height="278" fill="white" transform="translate(0 79)"/>
</clipPath>
<clipPath id="clip1_159_269">
<rect width="183.2" height="183.146" fill="white" transform="translate(230.539 231.854)"/>
</clipPath>
<clipPath id="clip2_159_269">
<rect width="190.301" height="198.732" fill="white" transform="translate(227.699)"/>
</clipPath>
</defs>
</svg>
